/* XPM */
static const char * alert_xpm[] = {
"59 40 218 2",
"  	c None",
". 	c #000000",
"+ 	c #171717",
"@ 	c #8B8A85",
"# 	c #C3C0B1",
"$ 	c #FAF4D7",
"% 	c #F9EFB7",
"& 	c #C2B87F",
"* 	c #8A8046",
"= 	c #0E0C04",
"- 	c #5D5D5D",
"; 	c #F1F1F0",
"> 	c #FFFDF4",
", 	c #FEF1A5",
"' 	c #FEE661",
") 	c #FDE03D",
"! 	c #FEE65E",
"~ 	c #FEEA78",
"{ 	c #E6CF46",
"] 	c #524913",
"^ 	c #050505",
"/ 	c #ACACAB",
"( 	c #FFFFFC",
"_ 	c #FEF2AC",
": 	c #FDDF34",
"< 	c #FDDD27",
"[ 	c #FDDE2D",
"} 	c #FDE246",
"| 	c #FDDF35",
"1 	c #9A8618",
"2 	c #A29F90",
"3 	c #FFFBE8",
"4 	c #FEE870",
"5 	c #FCDC27",
"6 	c #FBDB27",
"7 	c #F9DA26",
"8 	c #F8D926",
"9 	c #FADA27",
"0 	c #FCDF3B",
"a 	c #837214",
"b 	c #8B8876",
"c 	c #FFFCE9",
"d 	c #FEEA77",
"e 	c #A28D19",
"f 	c #7D6D13",
"g 	c #7B6C13",
"h 	c #D9BE22",
"i 	c #F1D325",
"j 	c #FCDF3C",
"k 	c #6C5F11",
"l 	c #66624F",
"m 	c #FFFBE7",
"n 	c #FEEC88",
"o 	c #7F6F14",
"p 	c #6E6111",
"q 	c #E0C423",
"r 	c #F6D726",
"s 	c #4C430C",
"t 	c #25241C",
"u 	c #F6EFC9",
"v 	c #FEF0A2",
"w 	c #B39C1C",
"x 	c #54490D",
"y 	c #CEB420",
"z 	c #E8CB24",
"A 	c #E1C523",
"B 	c #050504",
"C 	c #C6BD85",
"D 	c #FEF6C9",
"E 	c #FDDE2F",
"F 	c #BEA61E",
"G 	c #564B0D",
"H 	c #C1A91E",
"I 	c #E2C623",
"J 	c #FDDE2B",
"K 	c #A59019",
"L 	c #6B643F",
"M 	c #FFF8D5",
"N 	c #FDE55A",
"O 	c #ECCE24",
"P 	c #292306",
"Q 	c #BCA41D",
"R 	c #DFC322",
"S 	c #F5D626",
"T 	c #FDE037",
"U 	c #F4D526",
"V 	c #52480D",
"W 	c #13120D",
"X 	c #F0E5A0",
"Y 	c #FEF09F",
"Z 	c #EDCF25",
"` 	c #3D3509",
" .	c #BBA31D",
"..	c #DEC222",
"+.	c #FDDF31",
"@.	c #D0B620",
"#.	c #8A8044",
"$.	c #FFF7CA",
"%.	c #EFD125",
"&.	c #1C1904",
"*.	c #5C500E",
"=.	c #BDA51D",
"-.	c #685B10",
";.	c #1C1A10",
">.	c #F5E89C",
",.	c #FEEC89",
"'.	c #393209",
").	c #736412",
"!.	c #C0A81E",
"~.	c #F7D826",
"{.	c #FDDF36",
"].	c #D9BE21",
"^.	c #0D0B02",
"/.	c #8A7E3A",
"(.	c #FEF6C4",
"_.	c #F3D425",
":.	c #665A10",
"<.	c #756712",
"[.	c #C5AC1E",
"}.	c #E6C923",
"|.	c #766812",
"1.	c #0E0D08",
"2.	c #F0DF7D",
"3.	c #FEED8A",
"4.	c #958317",
"5.	c #998517",
"6.	c #CBB21F",
"7.	c #E9CC24",
"8.	c #C7AE1E",
"9.	c #040401",
"0.	c #655C23",
"a.	c #FEF2AD",
"b.	c #B7A01C",
"c.	c #282306",
"d.	c #AA941A",
"e.	c #D1B720",
"f.	c #4F450C",
"g.	c #C1AD38",
"h.	c #40380A",
"i.	c #B29B1B",
"j.	c #D8BD21",
"k.	c #978417",
"l.	c #F8E155",
"m.	c #1C1804",
"n.	c #645810",
"o.	c #D2B821",
"p.	c #49410E",
"q.	c #FEE975",
"r.	c #A8931A",
"s.	c #C7AE1F",
"t.	c #E5C823",
"u.	c #FDDD2A",
"v.	c #362F08",
"w.	c #7C6C13",
"x.	c #FEE973",
"y.	c #867615",
"z.	c #6C5E11",
"A.	c #D7BC21",
"B.	c #E7CA24",
"C.	c #877615",
"D.	c #FDE452",
"E.	c #D5BA21",
"F.	c #F2D325",
"G.	c #655810",
"H.	c #796913",
"I.	c #E4C723",
"J.	c #4D430C",
"K.	c #3A3209",
"L.	c #9D8918",
"M.	c #F0D225",
"N.	c #E3C623",
"O.	c #584D0D",
"P.	c #5C510E",
"Q.	c #B39D1C",
"R.	c #41390A",
"S.	c #1E1A05",
"T.	c #887715",
"U.	c #C5AD1E",
"V.	c #121003",
"W.	c #917F16",
"X.	c #2A2506",
"Y.	c #B49D1C",
"Z.	c #D6BB21",
"`.	c #726411",
" +	c #0C0B02",
".+	c #B8A01C",
"++	c #6B5D11",
"@+	c #5F530E",
"#+	c #A38F19",
"$+	c #DABF22",
"%+	c #9C8818",
"&+	c #070601",
"*+	c #141103",
"=+	c #9B8818",
"-+	c #DBC022",
";+	c #C9B01F",
">+	c #857314",
",+	c #110F03",
"'+	c #473E0B",
")+	c #CCB320",
"!+	c #EBCD24",
"~+	c #EACD24",
"{+	c #D4B921",
"]+	c #8A7915",
"^+	c #3B3409",
"/+	c #201C05",
"(+	c #857415",
"_+	c #988518",
":+	c #C6AD1F",
"<+	c #C5AD1F",
"[+	c #C4AB1F",
"}+	c #C2AA1E",
"|+	c #B9A11C",
"1+	c #958217",
"2+	c #4E440C",
"3+	c #1B1704",
"4+	c #141203",
"5+	c #252006",
"                                                                                                                      ",
"                                                                                                                      ",
"                                                                                                                      ",
"                                                                                                                      ",
"                                                        . . . .                                                       ",
"                                                    . . . . . . . .                                                   ",
"                                                . . . . . . . . . . . .                                               ",
"                                              . . . + @ # $ % & * = . . .                                             ",
"                                            . . . - ; > , ' ) ! ~ { ] . . .                                           ",
"                                          . . ^ / ( _ : < < < < [ } | 1 . . .                                         ",
"                                        . . . 2 3 4 < < 5 6 7 8 7 9 0 9 a . .                                         ",
"                                        . . b c d < < 5 7 e f g h i 8 j 7 k . .                                       ",
"                                      . . l m n < < < 7 o . . . p q i 9 ) r s . .                                     ",
"                                      . t u v < < < 5 w . . . . x y z 8 < | A   .                                     ",
"                                    . B C D E < < < 6 F . . . . G H I r < J 5 K . .                                   ",
"                                  . . L M N < < < < 6 O . . . . P Q R S < < T U V . .                                 ",
"                                  . W X Y < < < < < 5 Z . . . . `  ...S < < < +.@.  .                                 ",
"                                . . #.$.: < < < < < < %.&.. . . *.=.q S < < < [ r -.. .                               ",
"                                . ;.>.,.< < < < < < < i '.. . . ).!.I ~.< < < < {.].^..                               ",
"                              . . /.(.E < < < < < < < _.:.. . . <.[.}.7 < < < < J S |.. .                             ",
"                              . 1.2.3.< < < < < < < < S 4.. . . 5.6.7.9 < < < < < E 8.9..                             ",
"                            . . 0.a.: < < < < < < < < 8 b.. . c.d.e.Z 6 < < < < < E Z f.. .                           ",
"                            . . g., < < < < < < < < < 9 7.. . h.i.j.i 5 < < < < < < 6 k.. .                           ",
"                            . = l.! < < < < < < < < < 5 Z m.. n.Q ..S < < < < < < < | o.9..                           ",
"                          . . p.q.J < < < < < < < < < < i '.. r.s.t.8 < < < < < < < u.q v.. .                         ",
"                          . . w.x.< < < < < < < < < < < U y.z.[.A.Z 9 < < < < < < < < B.f.. .                         ",
"                          . . C.D.< < < < < < < < < < < r B.j.E.I F.5 < < < < < < < < z G.. .                         ",
"                          . . H.| < < < < < < < < < < 5 I.J.K.L.A M.9 < < < < < < < < N.O.. .                         ",
"                          . . P.9 < < < < < < < < < < 7 f.. . . Q.}.S 5 < < < < < < < j.R.. .                         ",
"                          . . S.M.9 < < < < < < < < < r . . . . T.].M.5 < < < < < < _.U.V.. .                         ",
"                            . . W.Z 5 < < < < < < < < U -.. . X.Y.Z.%.6 < < < < < 7 A.`.. .                           ",
"                            . .  +.+O 6 < < < < < < < r t.++@+#+H .._.5 < < < < r $+%+&+. .                           ",
"                              . . *+=+-+F.5 < < < < < 9 M...@.y -+O 8 < < < ~.t.;+>+,+. .                             ",
"                                . . . '+1 )+..O ~.5 < 5 8 i !+~+M.~.8 F.t.{+H ]+^+. . .                               ",
"                                  . . . . /+G (+_+=.H :+:+<+[+[+}+=.|+1+f 2+3+. . . .                                 ",
"                                      . . . . . . . 4+5+5+5+5+5+5+*+. . . . . . .                                     ",
"                                            . . . . . . . . . . . . . . . .                                           ",
"                                                                                                                      ",
"                                                                                                                      ",
"                                                                                                                      "};
