/* XPM */
static const char * image_xpm[] = {
"64 64 65 1",
" 	c None",
".	c #070707",
"+	c #99D3FB",
"@	c #9C9C9C",
"#	c #2793F2",
"$	c #818181",
"%	c #4A4B4E",
"&	c #707070",
"*	c #568ABE",
"=	c #1276D4",
"-	c #024A86",
";	c #A2C6F6",
">	c #5D95ED",
",	c #9AE6FE",
"'	c #1654A2",
")	c #59769F",
"!	c #9ABCEB",
"~	c #0C5FB0",
"{	c #E8E8E8",
"]	c #8AB7F6",
"^	c #023461",
"/	c #FEFEFD",
"(	c #578AE2",
"_	c #50AFFC",
":	c #184282",
"<	c #456593",
"[	c #1E78CC",
"}	c #B0D8FE",
"|	c #AFB0B1",
"1	c #B0C7EB",
"2	c #F8F8F8",
"3	c #7B9ED0",
"4	c #1169BB",
"5	c #1A1A1A",
"6	c #C4D8ED",
"7	c #6C8CBA",
"8	c #3084DF",
"9	c #75A4F5",
"0	c #303030",
"a	c #A6A6A7",
"b	c #4E7FCD",
"c	c #5F5F5F",
"d	c #275BA6",
"e	c #143C7A",
"f	c #36A6FD",
"g	c #D4D4D5",
"h	c #3372D0",
"i	c #849DC3",
"j	c #1B4B90",
"k	c #C7C8CA",
"l	c #F0F0F0",
"m	c #143E76",
"n	c #CFEAF5",
"o	c #B9BABD",
"p	c #DDDEE0",
"q	c #929FAF",
"r	c #23549F",
"s	c #2660B7",
"t	c #7EA6DF",
"u	c #909192",
"v	c #3B97EE",
"w	c #72839B",
"x	c #6CBFFD",
"y	c #2A67C2",
"z	c #59C1FE",
"                                                                ",
"                                                                ",
"                                                                ",
"                      %%%%%%<j'                                 ",
"           kll{llllllllllll2l|<dhyr                             ",
"           ap//2222222222222{{kw:shhyr                          ",
"           agpp{p{{{{{{{{{{pggkk7jjyh8hy                        ",
"           agp{{l{llll22ll{{ppgkk@rjdhb8hy                      ",
"           ak{{{{{ll2ll22lll{ppgkk|d:rhb(8hy                    ",
"           agp{{llllll2l22ll{{gggok|d:ryb((8hd                  ",
"           ak{{{{{ll2l2222l2{{pgkoooar:rsh(>>8y                 ",
"           agp{{lllll22222222{pgkoo|oujjsyyb>9(hj               ",
"           agp{{lll2l2222/22ll{ggoo|||)jrsyyy(9>8r              ",
"           ak{l{{lll2222/2/22lppkko|||@r'dyyyhb]98s             ",
"           |kpll{lll2222/2/22l{pkko||||<jryyyyyh]]bs            ",
"           ag{{{ll22222////2llppkko|aaawrdsyyyysy9](d           ",
"           akpllllll22//////2l{gko||@@u$jrsyssddr'h(bd          ",
"           @kpppp{{l{llllll{ppkk|a@u$$&&rrsdrjj::memrsj         ",
"           $@|okokokkkokooo||@@u$$$$u$@@<'rjjj<)w&c%%r<         ",
"     $c%%%%$@aaaaaaaa|||o|oookoooo||||a|h:r<u|okau&&&$$c        ",
"     g{ppppgggggpgppppp{{lllllppgkkooo|o))uqqu||@u&c$@u&        ",
"     |{{{{{{{{lll2ll22/////22llpgo|@u7&)d<<dryaoau$c$uuc        ",
"     u{ll22////////////2{p61!q7b<<srjjjjjrjr)7qk|@$c$uu&        ",
"     c{{2k!11111!!]t3>bb8hhyyysssdrrdrrdrrrd3tqgoa$&$uuc        ",
"     %pl/!'yyyyyyyyyy4hyhhyhhhysssddddrdrdd)3tagk|uc$uu&        ",
"      k{2gryh[hhhhhhhhhhhhhyyyysysddrdddddsb3]]pkou&&uu&        ",
"      o{2lsrshhhyhyhhyyyyyhhyyyysssdsddsdshb3!]{go@&&uuc        ",
"      ull2b'ssyyhyhyyhhhyhyyhyyyyssssdsss<yb31t{gka&&uu&        ",
"      cll/i'ssyyhyhhyyyyyyyyyyyyysysysssyyhb>1]ppka&&$u&        ",
"       pl/1'sssys=yyyhyhyyyyyyysyysysysyy<hb>;;g{ka$cu$&        ",
"       kl/grdssssysysy44====4ssssysyysyyyyhb>;;1lg|$c$$&        ",
"       |l22y'dssss4==8#fffvv#=~ddssyyyyyyhhb(]};{go$&$$&        ",
"       ${p6h~===##ffffvv8[=[vf4'rsysyyyyyhhb(t6!{gouc$$&        ",
"      -[f##ff_f_fv#8[4~''j-j8_='rdsyyyyyyyhb(9}!ppo@&&&&        ",
"    =#ff___vfv8=4~''rjjjjj:j_+h':rsyyyyyhyhhb9+11{k@&&&&        ",
"   #++x_vv8*'-::jjjjjrrjrj4fn]~jjrsyyyyyyyhhb>;}1{k|&c&c        ",
"  #,nz4m<qa|je:jjrrjrjd~[#z,_4j:jdsyyyyyhyhhb(]}!pg|$c&c        ",
"  znxm  %|og&ejjj's4=#ffzx_8~j:jrdyyyyyyyyhhh(96!pgouccc        ",
" =_x~   0kgp3~48#ffzzzx_v[dj:jjrddyyyyyyyyyhb(9}+k{k@&cc        ",
" =__^   5o{xffzzzxx_v84~j-jjjjrdssyyyyyyyyyshb>;}!pka&%c        ",
" =v8^    |{x____v#[4'j:jjjjrrrddysyyyyyysysysy(]n!pgo$c%        ",
" -#8-    $2]884~'::::jjjrrdrsssyyyyyyysyysssysy>6;ggouc%        ",
"  ##4^   %{{6ame:::rjrrrddsdysyyyyysysysssssssss>}1pkac%.       ",
"  =#==---~o{{p<mjrrrdddsdssysyysyyyyyssssddrjjjjjh|{k|$%.       ",
"   #8###f4qpp{u:rrddysyyyyyyyysyysydsssdrjd<bi|1kkk{gou%.       ",
"   -==8884ckp{6r'dsssyyyyyyysyysysyssrrs7!pl2l{ppkkoo||c.       ",
"     m--^^0opl2)'dssyyyyyyyyyysydssrrbo{/2{gkko||a@uu$$c.       ",
"          5a{l2!jssyssyysyssyssss'j)12/lgkooa@u$$&&cccc%.       ",
"          5up2/{ddssyyyysyssssdrrh12/{gkoau&&&&&&$$$$u$&        ",
"          5&gl//7jdsssssyssss'r)12/{gko@$&&&$uuu@u@@@@u&        ",
"          0&|l2/1'ssyyssssd'r(k/2{gk|@$&&$@@@@a@a@@@@@u$        ",
"           $up2/2<'dssssdjdip/2pgk|u$&$u@aaa|aaa@aa@@@u$        ",
"           u$kl2/i'sssj')]{2lpgo|u$&&u@aa|||aaaa@@@@@@u$        ",
"           @$u{2/6r'jr71l2{pgo|u&&$uaa||||aaaaa@a@@@@uu$        ",
"           au&kl22b<tpl2{pko|u&&$@aa||||a|aaa@a@@@@u@uu$        ",
"           a@$a{2/p{llpgkoau&&&ua|||||a||aaaaa@@@@@@u@u$        ",
"           aa$&gl22{ggooa$&c&$u@aa|aaaa@a@@@@@@@@uuuuuu$        ",
"           au$c@{lpkooaucc&&$u@u@@@u@@u@u@uuuu$u$u$u$$u$        ",
"           u$&ccg{ooa$c%cc&$$$$$$$$$$$$$$$$$$$$$$$$$$$$$        ",
"            0055$pa$055550000000000000000000000000000000        ",
"                0$0.                                            ",
"                                                                ",
"                                                                ",
"                                                                "};
