/* XPM */
static const char * question_xpm[] = {
"32 32 60 1",
" 	c None",
".	c #000000",
"+	c #7CAAD1",
"@	c #5396CA",
"#	c #317CBC",
"$	c #396F9C",
"%	c #365C79",
"&	c #10314D",
"*	c #000203",
"=	c #3276AF",
"-	c #1B415E",
";	c #2B6796",
">	c #1D4E74",
",	c #244A67",
"'	c #215074",
")	c #2E658F",
"!	c #3A6385",
"~	c #4B88BC",
"{	c #345979",
"]	c #4078A7",
"^	c #2D76AE",
"/	c #1C496B",
"(	c #4D91CA",
"_	c #266091",
":	c #204F77",
"<	c #286797",
"[	c #18476B",
"}	c #1B476C",
"|	c #70A6CF",
"1	c #256596",
"2	c #17466A",
"3	c #1D4E78",
"4	c #296292",
"5	c #386283",
"6	c #236190",
"7	c #266BA1",
"8	c #1A4971",
"9	c #2B6592",
"0	c #1B4C76",
"a	c #256190",
"b	c #174568",
"c	c #92B3CF",
"d	c #529DD7",
"e	c #85AFD0",
"f	c #2F86D0",
"g	c #286493",
"h	c #529AD7",
"i	c #358AD2",
"j	c #1E5179",
"k	c #3C78AB",
"l	c #4798D6",
"m	c #4090CD",
"n	c #3689CF",
"o	c #3A6081",
"p	c #365B7B",
"q	c #589DD7",
"r	c #1B486A",
"s	c #285173",
"t	c #599DD6",
"u	c #26618F",
"            ..........          ",
"          ..+@@##$$%%&*.        ",
"        ..+@=......-%;>&*.      ",
"       *+@,..      .*');!&.     ",
"      .+~{.          *]^;>*     ",
"      *+=/.          .(#^_&.    ",
"     .+@:*            *@^<[.    ",
"     .@#}.            .|#12.    ",
"     .@^3*            *+#^2.    ",
"     .=#45*..        .+@#^&.    ",
"     .=67=~@@*.      *+#^:*     ",
"      *86^^##=.     *+@#9&.     ",
"       *&0a^^b.    *cd#4&*      ",
"        .*&2&*    *edfg&*       ",
"          ...    *cdfg&*        ",
"                *ehfg&*         ",
"               *chf4&*          ",
"              .c+i^j*           ",
"              *+hk9&.           ",
"             .c|l^0*            ",
"             .|m^<b.            ",
"             .m^<b&.            ",
"              *&b&*             ",
"               ...              ",
"                                ",
"                                ",
"               ...              ",
"              *nop*             ",
"             .n+qnr.            ",
"             .stnu&.            ",
"              */b&*             ",
"               ...              "};
