/* XPM */
static const char * video2_xpm[] = {
"42 58 65 1",
" 	c None",
".	c #CCCEDC",
"+	c #CBCBD1",
"@	c #C6C6CC",
"#	c #C2C2CC",
"$	c #BEBEC6",
"%	c #BABACA",
"&	c #B6B6C8",
"*	c #B7B7C2",
"=	c #B2B2C6",
"-	c #D3D3D6",
";	c #D5D5E0",
">	c #E2E2EC",
",	c #E6E6F0",
"'	c #EAEAF2",
")	c #DDDDE8",
"!	c #AAAAC1",
"~	c #FEFEFE",
"{	c #FAFAFA",
"]	c #F6F6FA",
"^	c #F2F2F6",
"/	c #CED2E0",
"(	c #EEEEF6",
"_	c #A6A6BE",
":	c #AEAEC3",
"<	c #C6CADA",
"[	c #FAFAFE",
"}	c #A2A2BC",
"|	c #9C9EBB",
"1	c #C2C5D8",
"2	c #F2F2FA",
"3	c #9A9AB8",
"4	c #8E8EAF",
"5	c #BBBED1",
"6	c #8889AD",
"7	c #8188A5",
"8	c #B6BAD1",
"9	c #9698B7",
"0	c #6E6E86",
"a	c #70708A",
"b	c #B2B6CE",
"c	c #9092B2",
"d	c #AEB2CA",
"e	c #686885",
"f	c #A9AEC8",
"g	c #A6AAC6",
"h	c #A2A6C2",
"i	c #606080",
"j	c #9EA3C0",
"k	c #9AA2BE",
"l	c #8282AE",
"m	c #969EB8",
"n	c #9197B4",
"o	c #7C7CAA",
"p	c #58587D",
"q	c #7474A5",
"r	c #888FAC",
"s	c #52527A",
"t	c #6E6EA2",
"u	c #7C82A1",
"v	c #4C4C77",
"w	c #6A6AA2",
"x	c #65659E",
"y	c #777E9E",
"z	c #42426E",
"  .+++@@@@###$$$$$%%%%&&*==               ",
"-;--.-..+.++++@@#@##$#$%$%%=              ",
"+->,',',,,,>>>>)>))))););.&&!             ",
"+-....--~~~~~~~~~{{]]]^^^>&%&!            ",
"@-../...~~~~~~~~~{{]]^]^(>&-#=_           ",
"@-+   ..~~~~~~~~~{{]{^^^(>=;'$:_          ",
"@.<   ..~~~~~~~~~[{{]]]^^)=/]'%!}         ",
"#.<   <.~~~~~~~~~~{]]^]^^>=;[](%!}        ",
"@+@<<<<<~~~~~~~~~{{{{]^^^)=;[]^'&_|       ",
"#+#11<1<~~~~~~~~~[[]]]]2^)=;~~]]'&_3      ",
"#<111#11~~~~~~~~[[{{{]^^^)!)~~~]]'=}4     ",
"$<#   11~~~~~~~~~[[]]]]2^)!;~~~{]^'=}4    ",
"$@5   11~~~~~~~~~[{{]]^^^>!;~~~~{{^,:|6   ",
"$@5   ##~~~~~~~~~[[{]]]2()!;~~~~~{{^>_|6  ",
"%1555555~~~~~~~~~[{]]]^^^>_/~~~~~~{]^)|37 ",
"$#85555#~~~~~~~~~[[{]]]^()!___}}}||3|33990",
"%#888858~~~~~~~~~[{]]]^2^'&==:=::!!!_!_}9a",
"8#b   85~~~~~~~~~~[{]]]^('>)>)));;%5;;;$90",
"*$b   8b~~~~~~~~~[{]]]^2^^((',,>))88   5c0",
"&$b   &8~~~~~~~~~[[{]]]^((('(',>>>88   5c0",
"&%dddbb=~~~~~~~~[~{]]]^2^^((',>>))888858ce",
"&%dd:dbb~~~~~~~~[[[{]]]2((('(,>>>)b88858ce",
"=%ffddfd~~~~~~~~~~{]]]^^^(((,,>>>>8b8b884e",
"=&f   fd~~~~~~~~[[[{]]]2^(('>>>>>)bb   %4e",
":%g   ff~~~~~~~~~~{]]]^^^(',,>,>>,bb   84e",
":&g   gf~~~~~~~~[[[{]]]22(,,,>>>>>bb   b6e",
"!=hhhggg~~~~~~~~~~{]]]^^',',,,,,>>ddbbbb6i",
":=hhjhhg~~~~~~~~[[[{]^''',,,,,,,,>bdbbb86e",
"!=kjhjhh~~~~~~~~{]^('''',',',,,>>,dbddbd6i",
"_:k   jh~~~~~[]^((''(('''',',,,,,>fd   =6i",
"!=|   |k~~~[2^(((((('''(''',',',,,dd   bli",
"_:m   |j~[^^^^(^((((((''''',',',,,fd   b7i",
"_!n933mm]]^]^2^((^((((('(''',',,,,ffddddoi",
"_!9n999|^]^2^^^^(^((('('('(''''','ffff:dli",
"}fn9nmmm]]]^22^^^(^((((('('('',,',fffdddoi",
"}gn   99]2]]]^2^^(2(2(((('''''',,,gf   dop",
"|gn   n9]]]]^]^2^2(2(((('((''(''''fg   foi",
"|_n   nn{]]]^]]^^^^^22(2('(('''',,fg   fop",
"|_ccnnnn]]]]]]^]]]^2^(2(((((((('''gggfffqi",
"|}rrcrrn{]]]]]]^^2^^^((22(('('((''gggg!fqp",
"3hrrrnnc]{{]]]^]]^22222((((('(''('gghgggop",
"3}r   rr{{{]]]]2]]^^^^222(22((('''hg   gqp",
"3}r   rr[]{{{{]]]^]]]2^^^2((((((('hh   gqp",
"9|r   rr[[]]]]{]]]^2]^2^^2(2((((((hh   gqs",
"9|766rr6[{[[[[]]]]]]^]^2^^2(2(((((hhhhhhtp",
"9|7r77rr{~[{{{{[]]]]]]^22^^^^^((('khhhhhts",
"c3777677~[{[[[]]]]]]^2]^^2^(((((((hkhhhhts",
"c37   77~~[{{[{{{]]]]]]]]^]2^^^(^(jj   hts",
"c9u   77~~~[[{[[{{{{]]]^^]^^^^^^((kk   htv",
"49u   u7[~~[~[{[[{]{]]]]22]22^^^^(|j   jtv",
"c9uuuu7u~~~~{~[{{][]]]]]]]^]^2^^(^k|jjjjws",
"4cuuuuu7~~~~~~[[[{[{{[]]]]^]^22^((|m|kjjxv",
"6cyyyyyy~~~~[[~[~[{[]]{]]]]2]^^222m|k|||xv",
"4cy   uy~~~~~[~[[[{[{{{{]]]2]2]]22mm   jxv",
"64y   yy~~~~~~~~~~[{[]{]{]]]]]^^2233   |xv",
"64y   yy~~~~~~~~~~~[[[[[{{{]]]]]]]mm   kxv",
"666666666l6llooooooooqqqqqtttttwwwxxxxxixz",
" q0eeiiiiiiiiiippppppppsspspsvssvvvvvvvzz "};
