/* XPM */
static const char * video_xpm[] = {
"64 64 65 1",
" 	c None",
".	c #030208",
"+	c #1D5099",
"@	c #C3C4C5",
"#	c #3977D6",
"$	c #518FEE",
"%	c #17458A",
"&	c #D3D4D5",
"*	c #B4B4B5",
"=	c #103264",
"-	c #4F5055",
";	c #1D232E",
">	c #E5E6E7",
",	c #75A4F5",
"'	c #637386",
")	c #2F69C1",
"!	c #1B1C24",
"~	c #345E9E",
"{	c #717075",
"]	c #7B7B7E",
"^	c #F1F2F3",
"/	c #23477C",
"(	c #5D91EA",
"_	c #13131A",
":	c #58585E",
"<	c #A0A0A1",
"[	c #8EA8D8",
"}	c #8E8E8F",
"|	c #828284",
"1	c #466493",
"2	c #4F83D9",
"3	c #3C3C42",
"4	c #2359A8",
"5	c #8EBAFE",
"6	c #0F0E15",
"7	c #6696EE",
"8	c #5E5E65",
"9	c #EFF6FC",
"0	c #41444C",
"a	c #89939F",
"b	c #DDDEDF",
"c	c #1D3355",
"d	c #A8A8A8",
"e	c #08080E",
"f	c #4E688C",
"g	c #CCCED0",
"h	c #ADAEAE",
"i	c #2865BF",
"j	c #949496",
"k	c #77869B",
"l	c #BCBCBC",
"m	c #303138",
"n	c #9A9A9C",
"o	c #646568",
"p	c #F6F6F7",
"q	c #92B6FA",
"r	c #C9CACB",
"s	c #26262F",
"t	c #ECECEC",
"u	c #88888A",
"v	c #49484D",
"w	c #FBFDFD",
"x	c #35363B",
"y	c #6A6A6C",
"z	c #0E0A13",
"                                                                ",
"                                                                ",
"                                                                ",
"               v-v-v-v-----0c                 m                 ",
"          j>tt^t^t^t^tttttp^l)4)+          r^9]v                ",
"          ]@wwwwwwwwwwwwwwp^^b'+i#)+    &>w999wn                ",
"          ulbbb>b>>>>>t>ttt>&&@k%%)(2;6mlw99bh'                 ",
"          |lb>>>ttt^^^^^^t>>>bbgd7r^ty.._ah8                    ",
"          |lb>tttt^^^^p^^^t>&dd^pwwwwp{;c%=6                    ",
"          |lb>>ttt^^^p^p^ttlmz_dww9ga1/41))i/                   ",
"          |lb>>tt^^pww^^t^w^u_.6}dkyc=%+)2($#)                  ",
"          |lb>tttt>bn<ww9wwww|m:y{]}|/%44)#772#/                ",
"          |lb>>>t^rmz_}ww^rd|jj<<<ddh|%+4))#$,(#4               ",
"          |lb>t^www*mz6|hjj<**llll*hdh1+4iiii$,,2i              ",
"          |l>wpwwww^jv{u<*@&bbbg@ll*dhk++ii)ii#,52i             ",
"          |l**&tt@<ujh@&btt^^tb&r@**hh<444))))i#,5$)            ",
"          |lry<h}}dl@&>twwwwttb&@@**ddd1+4iiii4442,$)           ",
"          ulb<:unlg>^^pwwwwpp>>&rl**hdh'+4ii44+%%=%~))          ",
"          |lb}{&lllgtwwwwwww^tb&r@**hdhk+4++%%+-~f1-/4/         ",
"          |l&lwwwpt&&n*b^www^tb&rll*hhda+%/+'kndh*l*<u's        ",
"          |lg|n&wwwwd__xr@b>t>>&rl**hhha+fa<hddddh*l*<um        ",
"          |@<xsx0]*ns!s*w^brr@rg&@@****da*hhdhhh***lldum        ",
"          ul{x3xc!!!!6{^wwwwwrxvod*****l**h******llll<um        ",
"          |*{vxssmsms;!s8jbpb3e.8>g@h*hllll**llllll@l<|m        ",
"          |<*@h'-3cs;!!!_e_xmeeywwww^>@]|<l@l@@@@@@@@<um        ",
"          k*hlg@b*mm0;;!!!_____0|*>www|e.x@@ll@rrr@rldum        ",
"          |-0khl&lvkb<y_!xm!__!6e6;:j{.emlw^>&g@grrr@<um        ",
"          ]x;k@ndd<<**}_e:80-x_!!__eeee.'btww99b<*@@@dux        ",
"          :ssv']lrb@ny[<]-338mv-;!!66_6_e_x][>b-od@@@dux        ",
"          vss;_3-vkr-.:k:]<k{30-8k{3;___6_e.ess_u<l@@dum        ",
"          msss;0k;z!!6u0eed<ujj|y-:0ysoo;e6e_ee3jh@@@d}x        ",
"          -;!!c8{_!!!;n!_;'*l@hj8|uuu0-8]o:m;;e:nl@@ldux        ",
"         :{80xs80_!!_va6!!_;m8d0.ej]ou|y8-:{8mz{<l@@ldux        ",
"         !c:|ko-sc!6e{86!__s06_6__j_._u<au]y-6sud@@@ld}x        ",
"         h{00m0-8kovc}x_!_6oh6__63jeesd*hnoy]|{uh@l@*d}x        ",
"         &gb@n{v;sm-ou____e08.!_zo8.__6mou<s.!{<*l@lld}3        ",
"        3-u<@-8u<}ox:'.___eoxz__z}3z__z_m_s!z_]<llll*<}x        ",
"        ose_s_66!3{u@<:x_ees___6!}_6_6z:*z66zmuh@@l**d}3        ",
"        g@dk-c_z_6.z!0]j<]:!zezz3|z___zx{.__z-}*lll**<}x        ",
"       ykrr&ljd'v;_.ze.es-|jj{3z{v._6_zo3e_66yj*lll*hd}3        ",
"       !.;8n:-@bnj}y0_z.z.zzm:ljl{m6..zm_6_6!|<*l***h<}3        ",
"       h]0_..s-ux6xo|nu8m6.zzznnjnjj]vmz.z6z0}dlll*hd<}3        ",
"       &^b@<{3z..zzzz!3{}n|-_0nnh<uj<*nn]v!zvjh****hh<}3        ",
"      3:al@dggdj83!.zzzezsv]ul:e!0{<bgo!v|}|{n***hhdd<}0        ",
"      :s.zm38db|:uj|:mz.zzzez<mzzzzzs:mz..60]n***hhdd<}0        ",
"      l*d|v!zzm!.z!v{n<]-!ze_n_z_zz_z.z6__z0u<**hhdd<n}v        ",
"     {|h&wt&<]3!z.zz.zm-]jj8|ueezz_zz_66_668jdhhdhdd<<}v        ",
"     {sx:ad@*&&*n{3!z..zzzx:}nu:x6..z66___!{jdhhhd<<<n}v        ",
"       ss!_x-ah*&]}n}o3zz.zzez3y}nu-sz.zz6x]<dhddd<<<n}v        ",
"          ::ms_xv.z!0{jdu:sz.z..z!v]nn{v!ev|<hddd<<<<nu-        ",
"          {jju{vm!_z..zs-|<<]-!z..z.zm-|}|o|<dd<d<<nnnu-        ",
"          ]ddd<nj|{-x__z..zs:un}y3_z.z.._3]}<ddd<<<<<n}v        ",
"          |hh****ddn}]o0m__z.zz38unu8xz..x|j<d<<<<nnjnj-        ",
"          |h*l*ll***hd<<}{:3s6zz.z_3{j<u-v|nd<<<<nnjnju-        ",
"          |hh*l*l*l*ll**ddnju{-x!6zz.zsv|yu<<<<<n<njnj}-        ",
"          |h******l**l*****hd<nu]o3x_6z.!{u<<<<nnjnnjn}-        ",
"          |h<nn<<n<<<<<<<d<<dnnnj}}]{:xsv{ujjjjj}}}}u}}-        ",
"          |nu}uuu}u}}}}}}}}}j}j}j}}u|]]{{]|}}uuuuu|||uu:        ",
"          oyoyooyoyoooyyyyyyyyyyyyoooooo8ooooooooyooooyv        ",
"                                                                ",
"                                                                ",
"                                                                ",
"                                                                ",
"                                                                "};
