/* XPM */
static const char *dock_xpm[] = {
"22 22 485 2",
"  	c None",
". 	c #DCA271",
"+ 	c #ECCBA4",
"@ 	c #F0DAB2",
"# 	c #EFCA96",
"$ 	c #ECBF87",
"% 	c #EEC790",
"& 	c #E9C79A",
"* 	c #EDD4B9",
"= 	c #F2DCC9",
"- 	c #F2DAC8",
"; 	c #F3DBCC",
"> 	c #F1D0C4",
", 	c #EFDAD2",
"' 	c #FCFBF9",
") 	c #FAF0ED",
"! 	c #F1CCB8",
"~ 	c #F3DED2",
"{ 	c #F7EFEB",
"] 	c #FBF9F6",
"^ 	c #FEFEFE",
"/ 	c #FDFDFC",
"( 	c #FBFAF7",
"_ 	c #EAC69E",
": 	c #F2DBB6",
"< 	c #E7C294",
"[ 	c #D89D67",
"} 	c #DCA46F",
"| 	c #E6B88C",
"1 	c #ECC4A3",
"2 	c #EECCB5",
"3 	c #EBCAB6",
"4 	c #EBCBB8",
"5 	c #ECD0C1",
"6 	c #EFCFC1",
"7 	c #E6C7BA",
"8 	c #FAF2EC",
"9 	c #FDF4F2",
"0 	c #F5D3BF",
"a 	c #F1D6C4",
"b 	c #F9EAE2",
"c 	c #F8EEE7",
"d 	c #FDFDFB",
"e 	c #FAF8F7",
"f 	c #F0E5E1",
"g 	c #EFD4B1",
"h 	c #DFAA77",
"i 	c #D28245",
"j 	c #DD9A68",
"k 	c #E6BCA0",
"l 	c #F0CFC0",
"m 	c #EFCEBF",
"n 	c #E4BFA9",
"o 	c #E8BFAC",
"p 	c #E9C4B7",
"q 	c #EACEC3",
"r 	c #F2DBD0",
"s 	c #E5C8BE",
"t 	c #E9D3C8",
"u 	c #FAE9DE",
"v 	c #F3D2B6",
"w 	c #ECC3A2",
"x 	c #F6D2B6",
"y 	c #ECCBB2",
"z 	c #F9EEDE",
"A 	c #F1E1D8",
"B 	c #DCBBB0",
"C 	c #DCA470",
"D 	c #D68949",
"E 	c #E29960",
"F 	c #E5AF88",
"G 	c #EDD0C8",
"H 	c #F7DFDD",
"I 	c #EBC9BE",
"J 	c #E6BDAD",
"K 	c #EAC3B3",
"L 	c #EECFC3",
"M 	c #ECD5CE",
"N 	c #EAD7D3",
"O 	c #F0DBD7",
"P 	c #E5C6B7",
"Q 	c #EBD2BF",
"R 	c #F3D4B9",
"S 	c #EABB94",
"T 	c #F0BC92",
"U 	c #E4B288",
"V 	c #EDD1B0",
"W 	c #ECC5AD",
"X 	c #D19A80",
"Y 	c #EDB57E",
"Z 	c #EAB47E",
"` 	c #E9B080",
" .	c #E0AB8C",
"..	c #EBC6BE",
"+.	c #EDCCC2",
"@.	c #E8C3B4",
"#.	c #E9C4B9",
"$.	c #E7C6C1",
"%.	c #DEC5C1",
"&.	c #D8C1C0",
"*.	c #D5BABF",
"=.	c #C6A8AC",
"-.	c #C5A69D",
";.	c #E6D1BC",
">.	c #F7DECC",
",.	c #ECC7AB",
"'.	c #E9BB99",
").	c #E6B28D",
"!.	c #E1AF8C",
"~.	c #DB9771",
"{.	c #D48A5B",
"].	c #E2A275",
"^.	c #E6B085",
"/.	c #E2A883",
"(.	c #D99A7F",
"_.	c #E6B6A9",
":.	c #EAC2BA",
"<.	c #EDCCC4",
"[.	c #ECD0CD",
"}.	c #E8CED3",
"|.	c #E2CCD2",
"1.	c #E3D0D2",
"2.	c #DECDD4",
"3.	c #DDC7D1",
"4.	c #C7A6AA",
"5.	c #B59087",
"6.	c #E6C7BB",
"7.	c #ECCDBB",
"8.	c #EDC7AF",
"9.	c #EFC1A6",
"0.	c #DEA68A",
"a.	c #BE6C3F",
"b.	c #C87339",
"c.	c #D08560",
"d.	c #E4A886",
"e.	c #DEA182",
"f.	c #DD9A81",
"g.	c #E4ACA1",
"h.	c #EBC0BA",
"i.	c #F0D1CD",
"j.	c #F1D8D8",
"k.	c #D4B7BC",
"l.	c #846169",
"m.	c #6A4850",
"n.	c #665058",
"o.	c #7C626A",
"p.	c #B8959D",
"q.	c #D6AEB0",
"r.	c #E5C3BD",
"s.	c #EFCFC0",
"t.	c #EAC0AC",
"u.	c #CD9F8F",
"v.	c #A66F62",
"w.	c #B56741",
"x.	c #D58A54",
"y.	c #CA8267",
"z.	c #E09C7E",
"A.	c #DA9175",
"B.	c #DE927A",
"C.	c #E3A397",
"D.	c #E8B6AF",
"E.	c #ECC8C5",
"F.	c #F4D6D9",
"G.	c #E4C5CB",
"H.	c #A47D87",
"I.	c #76505E",
"J.	c #97838D",
"K.	c #A3898B",
"L.	c #936B72",
"M.	c #E0C2C9",
"N.	c #EFD8D3",
"O.	c #E5C3B7",
"P.	c #A37B74",
"Q.	c #704C47",
"R.	c #834E46",
"S.	c #BA6A49",
"T.	c #DA9261",
"U.	c #D49681",
"V.	c #D28B6E",
"W.	c #D9896C",
"X.	c #DB886F",
"Y.	c #E09587",
"Z.	c #E4A59F",
"`.	c #E7B6B5",
" +	c #EFCBCF",
".+	c #F0CFD5",
"++	c #E0BCC3",
"@+	c #CAA2AE",
"#+	c #AD8792",
"$+	c #A0757C",
"%+	c #C7A2AA",
"&+	c #F3E4EB",
"*+	c #F8EAE7",
"=+	c #B79291",
"-+	c #80616E",
";+	c #9B8184",
">+	c #6D3D2D",
",+	c #B3683E",
"'+	c #D68851",
")+	c #AE8071",
"!+	c #BF7B60",
"~+	c #D8896B",
"{+	c #D7856E",
"]+	c #DB897B",
"^+	c #E1978E",
"/+	c #E6A8A5",
"(+	c #ECBEC0",
"_+	c #F0CBD0",
":+	c #EFCCD2",
"<+	c #EBC6CD",
"[+	c #E8BFC8",
"}+	c #E8C4CF",
"|+	c #F0E0E7",
"1+	c #FCFAFB",
"2+	c #F7EAE6",
"3+	c #CA9E9F",
"4+	c #A3737C",
"5+	c #925C59",
"6+	c #9A583E",
"7+	c #C27548",
"8+	c #D2783A",
"9+	c #916E63",
"0+	c #A05B43",
"a+	c #D38063",
"b+	c #D6826B",
"c+	c #D88775",
"d+	c #DE9285",
"e+	c #E5A19C",
"f+	c #E9B2B5",
"g+	c #EFC3C7",
"h+	c #F1CAD1",
"i+	c #EFC9CF",
"j+	c #EECDD1",
"k+	c #F6DFE8",
"l+	c #FCF6FA",
"m+	c #FFFEFE",
"n+	c #F8EAEA",
"o+	c #DCAFB0",
"p+	c #CE908D",
"q+	c #B97063",
"r+	c #AB5D40",
"s+	c #CD8157",
"t+	c #D17034",
"u+	c #724632",
"v+	c #AC5D3F",
"w+	c #CE785C",
"x+	c #D4846B",
"y+	c #D88D77",
"z+	c #DE9685",
"A+	c #E39F95",
"B+	c #E6A9A6",
"C+	c #EBB5B9",
"D+	c #F0BFC6",
"E+	c #F2BEC9",
"F+	c #F1C3C8",
"G+	c #EDC9CA",
"H+	c #F8E4E5",
"I+	c #FCF5F5",
"J+	c #F8EAE8",
"K+	c #E2BBB7",
"L+	c #DA9D93",
"M+	c #C67A68",
"N+	c #B4643E",
"O+	c #D79063",
"P+	c #DF844D",
"Q+	c #C48D6D",
"R+	c #C26742",
"S+	c #CD7558",
"T+	c #D4846A",
"U+	c #DA8F77",
"V+	c #E09885",
"W+	c #E4A193",
"X+	c #E5A7A0",
"Y+	c #E9AEAC",
"Z+	c #EBB0B2",
"`+	c #EAABAD",
" @	c #E1A09B",
".@	c #DFA89D",
"+@	c #F3D7D1",
"@@	c #F4E0DE",
"#@	c #F9E9E7",
"$@	c #EBC5BE",
"%@	c #DD9989",
"&@	c #CB7D62",
"*@	c #BB6437",
"=@	c #D2895A",
"-@	c #E59D70",
";@	c #C47A57",
">@	c #C46B44",
",@	c #C86F51",
"'@	c #D47F65",
")@	c #DC8E75",
"!@	c #E19985",
"~@	c #E4A293",
"{@	c #E5A79C",
"]@	c #E5A69D",
"^@	c #E39E95",
"/@	c #D99085",
"(@	c #DFA194",
"_@	c #E2ACA0",
":@	c #E2B2AA",
"<@	c #DEAA9F",
"[@	c #E8BAAC",
"}@	c #E7AD9B",
"|@	c #D8876C",
"1@	c #C7764F",
"2@	c #BD5E2B",
"3@	c #CC7E4B",
"4@	c #EBB080",
"5@	c #C67754",
"6@	c #C36B47",
"7@	c #C36947",
"8@	c #CF775A",
"9@	c #D9896E",
"0@	c #E09981",
"a@	c #E3A390",
"b@	c #E4A796",
"c@	c #E5A08F",
"d@	c #DE8D7B",
"e@	c #D88572",
"f@	c #F3C5B8",
"g@	c #F7D2C5",
"h@	c #EBAE98",
"i@	c #D7896A",
"j@	c #CA7F62",
"k@	c #D58163",
"l@	c #CF744F",
"m@	c #C97A4D",
"n@	c #C36631",
"o@	c #CB7740",
"p@	c #EEB67D",
"q@	c #C37856",
"r@	c #C26A47",
"s@	c #C1603E",
"t@	c #C56848",
"u@	c #D07D60",
"v@	c #DB9175",
"w@	c #E2A187",
"x@	c #E2A58C",
"y@	c #E59E86",
"z@	c #CD765F",
"A@	c #B24E38",
"B@	c #CE7970",
"C@	c #D19288",
"D@	c #CE816B",
"E@	c #CA6D4E",
"F@	c #CF7A5C",
"G@	c #CF7653",
"H@	c #C16940",
"I@	c #D58D65",
"J@	c #C56D39",
"K@	c #D07A3C",
"L@	c #E8A96C",
"M@	c #7E4A34",
"N@	c #AD6345",
"O@	c #B75532",
"P@	c #BC5B38",
"Q@	c #C87050",
"R@	c #D78668",
"S@	c #E0977A",
"T@	c #E1A084",
"U@	c #E29F84",
"V@	c #E0957C",
"W@	c #CA7562",
"X@	c #C97B7A",
"Y@	c #D39C98",
"Z@	c #D59C8E",
"`@	c #C5705A",
" #	c #D58364",
".#	c #C57045",
"+#	c #C37244",
"@#	c #D68B62",
"##	c #C26A34",
"$#	c #D58042",
"%#	c #DF9C62",
"&#	c #4B261B",
"*#	c #864730",
"=#	c #AE4F2B",
"-#	c #B14C28",
";#	c #C06240",
">#	c #D07757",
",#	c #DB8A6B",
"'#	c #DE9779",
")#	c #E1A487",
"!#	c #EBB398",
"~#	c #E8A992",
"{#	c #DE8E7E",
"]#	c #CD6C5D",
"^#	c #C25641",
"/#	c #CC7455",
"(#	c #CF865F",
"_#	c #C37040",
":#	c #D28253",
"<#	c #CB7340",
"[#	c #CA6C32",
"}#	c #D78A51",
"|#	c #DB945D",
"1#	c #6A301F",
"2#	c #8A452D",
"3#	c #C0613E",
"4#	c #A83C1C",
"5#	c #B54E29",
"6#	c #C86944",
"7#	c #D57D5C",
"8#	c #DC8F70",
"9#	c #E2A386",
"0#	c #EBBAA0",
"a#	c #EAB89F",
"b#	c #DC9275",
"c#	c #CE6B4E",
"d#	c #CB6242",
"e#	c #BB643F",
"f#	c #C57446",
"g#	c #C9713D",
"h#	c #D67F4E",
"i#	c #C25D22",
"j#	c #CD6B2C",
"k#	c #D98E54",
"l#	c #DE8445",
"m#	c #CC7A5B",
"n#	c #CA704B",
"o#	c #CF6840",
"p#	c #B64725",
"q#	c #A53A17",
"r#	c #B34E2B",
"s#	c #C86B47",
"t#	c #D58360",
"u#	c #E39F80",
"v#	c #F1C0A7",
"w#	c #F1C7B2",
"x#	c #EFB8A0",
"y#	c #E6A282",
"z#	c #C97C5B",
"A#	c #914020",
"B#	c #CB7646",
"C#	c #CA7137",
"D#	c #CD6D35",
"E#	c #C6601F",
"F#	c #D26E2E",
"G#	c #DE8649",
"H#	c #DF7D3B",
"I#	c #D87A58",
"J#	c #D16E48",
"K#	c #CF663C",
"L#	c #C2552F",
"M#	c #AB3D1C",
"N#	c #9B3414",
"O#	c #983A1B",
"P#	c #B05736",
"Q#	c #CC7B5C",
"R#	c #EAA88B",
"S#	c #F3B9A1",
"T#	c #EEB49D",
"U#	c #E5A181",
"V#	c #B6603F",
"W#	c #A14A26",
"X#	c #D37E46",
"Y#	c #CB6A2D",
"Z#	c #C66123",
"`#	c #CE6522",
" $	c #D6722D",
".$	c #DA7A36",
"+$	c #DF823F",
"@$	c #CB6944",
"#$	c #CC6740",
"$$	c #CA6239",
"%$	c #BA542F",
"&$	c #963818",
"*$	c #7D290D",
"=$	c #6E2007",
"-$	c #78270D",
";$	c #913C20",
">$	c #B46244",
",$	c #CB7D60",
"'$	c #CF8365",
")$	c #C06947",
"!$	c #A23C1A",
"~$	c #C06739",
"{$	c #D6844A",
"]$	c #C66529",
"^$	c #CC692B",
"/$	c #CD6423",
"($	c #D6732F",
"_$	c #D37532",
":$	c #E49051",
". + @ # $ % & * = - ; > , ' ) ! ~ { ] ^ / ( ",
"_ : < [ } | 1 2 3 4 5 6 7 8 9 0 a b c d e f ",
"g h i j k l m n o p q r s t u v w x y z A B ",
"C D E F G H I J K L M N O P Q R S T U V W X ",
"Y Z `  ...+.@.#.$.%.&.*.=.-.;.>.,.'.).!.~.{.",
"].^./.(._.:.<.[.}.|.1.2.3.4.5.6.7.8.9.0.a.b.",
"c.d.e.f.g.h.i.j.k.l.m.n.o.p.q.r.s.t.u.v.w.x.",
"y.z.A.B.C.D.E.F.G.H.I.J.K.L.M.N.O.P.Q.R.S.T.",
"U.V.W.X.Y.Z.`. +.+++@+#+$+%+&+*+=+-+;+>+,+'+",
")+!+~+{+]+^+/+(+_+:+<+[+}+|+1+2+3+4+5+6+7+8+",
"9+0+a+b+c+d+e+f+g+h+i+j+k+l+m+n+o+p+q+r+s+t+",
"u+v+w+x+y+z+A+B+C+D+E+F+G+H+I+J+K+L+M+N+O+P+",
"Q+R+S+T+U+V+W+X+Y+Z+`+ @.@+@@@#@$@%@&@*@=@-@",
";@>@,@'@)@!@~@{@]@^@/@(@_@:@<@[@}@|@1@2@3@4@",
"5@6@7@8@9@0@a@b@c@d@e@f@g@h@i@j@k@l@m@n@o@p@",
"q@r@s@t@u@v@w@x@y@z@A@B@C@D@E@F@G@H@I@J@K@L@",
"M@N@O@P@Q@R@S@T@U@V@W@X@Y@Z@`@ #.#+#@###$#%#",
"&#*#=#-#;#>#,#'#)#!#~#{#]#^#/#(#_#:#<#[#}#|#",
"1#2#3#4#5#6#7#8#9#0#a#b#c#d#e#f#g#h#i#j#k#l#",
"m#n#o#p#q#r#s#t#u#v#w#x#y#z#A#B#C#D#E#F#G#H#",
"I#J#K#L#M#N#O#P#Q#R#S#T#U#V#W#X#Y#Z#`# $.$+$",
"@$#$$$%$&$*$=$-$;$>$,$'$)$!$~${$]$^$/$($_$:$"};
