/* XPM */
static const char * dotfile_xpm[] = {
"16 16 67 1",
" 	c None",
".	c #000000",
"+	c #8E8E8E",
"@	c #E3E3E3",
"#	c #696969",
"$	c #F1F0E1",
"%	c #ECE9D5",
"&	c #EDEBD8",
"*	c #2E2D29",
"=	c #7E7D76",
"-	c #5D5C58",
";	c #53534F",
">	c #21211E",
",	c #79776C",
"'	c #979487",
")	c #8C866C",
"!	c #EBE7D3",
"~	c #C1B485",
"{	c #343124",
"]	c #ABA89E",
"^	c #EFECE0",
"/	c #AEABA3",
"(	c #6C6A66",
"_	c #26241A",
":	c #8F8663",
"<	c #7A7251",
"[	c #988E69",
"}	c #353225",
"|	c #26231A",
"1	c #302D21",
"2	c #333023",
"3	c #6E674C",
"4	c #A69B72",
"5	c #7A7051",
"6	c #EBE8D4",
"7	c #D8D0B3",
"8	c #58523D",
"9	c #E9E6D2",
"0	c #FFFFFF",
"a	c #A3A3A3",
"b	c #DCDCDC",
"c	c #BDBDBD",
"d	c #1B1B1B",
"e	c #787878",
"f	c #E9E6D1",
"g	c #9BB798",
"h	c #0C0C0C",
"i	c #E9E6D0",
"j	c #0E0E0E",
"k	c #B8D1B8",
"l	c #9CB899",
"m	c #5D8155",
"n	c #090909",
"o	c #E8E5D0",
"p	c #A39870",
"q	c #ADCAAB",
"r	c #83AF81",
"s	c #99B496",
"t	c #608058",
"u	c #6D8463",
"v	c #080808",
"w	c #EDEAD7",
"x	c #E9E5CE",
"y	c #898267",
"z	c #746A45",
"A	c #6B623D",
"B	c #655A37",
"     ...        ",
" ....+@#....    ",
".$%&*=-;>,').   ",
".!~{]^^/(_:<.   ",
".%~[}|1|2345.   ",
".6~~78......... ",
".9~[~.0000ab000.",
".9~~7.000cdec00.",
".f~[~.00cdghec0.",
".i~~7.0cjklmnec.",
".o~p~.0dqrstuvc.",
".o~~7.0cjklmnec.",
".w~p~.00cdghec0.",
".x~~~.000cdec00.",
".yzAB.0000ab000.",
" .............. "};
