/* XPM */
static const char * down_xpm[] = {
"16 16 21 1",
" 	c None",
".	c #000000",
"+	c #B69B5C",
"@	c #E4C379",
"#	c #F7EECD",
"$	c #F9F5E5",
"%	c #9E7009",
"&	c #AC7A09",
"*	c #EED680",
"=	c #FAF5E5",
"-	c #825C06",
";	c #D1940C",
">	c #8E6407",
",	c #FAF5E3",
"'	c #624504",
")	c #BC850A",
"!	c #F5EBC4",
"~	c #FAF7E9",
"{	c #ECD6A4",
"]	c #684905",
"^	c #765305",
"                ",
"                ",
"                ",
"     ......     ",
"     .+@#$.     ",
"     .%&*=.     ",
"     .-;*=.     ",
"  ....>&*,....  ",
"   .')&;*!~{.   ",
"    .];&**;.    ",
"     .];*;.     ",
"      .^;.      ",
"       ..       ",
"                ",
"                ",
"                "};
