/* XPM */
static const char * ff_xpm[] = {
"22 22 18 1",
" 	c None",
".	c #000000",
"+	c #77A16E",
"@	c #ACC8A9",
"#	c #709867",
"$	c #B2CBB0",
"%	c #AAC7A8",
"&	c #0F1308",
"*	c #ADC8AD",
"=	c #A8C7A8",
"-	c #A5C4A3",
";	c #7F9F76",
">	c #ABC7A8",
",	c #AFC8AD",
"'	c #A4C3A2",
")	c #6B9060",
"!	c #5B7950",
"~	c #445B2C",
"                      ",
"                      ",
"                      ",
"                      ",
"                      ",
"    .      .          ",
"    ..     ..         ",
"    .+.    .+.        ",
"    .@#.   .@#.       ",
"    .$%#&  .$%#&      ",
"    .*=-;. .*=-;.     ",
"    .%>,')..%>,').    ",
"    .!!!~. .!!!~.     ",
"    .!!~.  .!!~.      ",
"    .!~.   .!~.       ",
"    .~.    .~.        ",
"    ..     ..         ",
"    .      .          ",
"                      ",
"                      ",
"                      ",
"                      "};
