/* XPM */
static const char * first_xpm[] = {
"16 16 44 1",
" 	c None",
".	c #000000",
"+	c #CFAC4E",
"@	c #D3B050",
"#	c #D9B452",
"$	c #A6883F",
"%	c #B8D4A4",
"&	c #D7B043",
"*	c #DDB749",
"=	c #E0BF62",
"-	c #A48C47",
";	c #A9C993",
">	c #C9DDBB",
",	c #C9DEBB",
"'	c #D2E3C6",
")	c #C5A046",
"!	c #DDB444",
"~	c #BE9E43",
"{	c #B0CF9A",
"]	c #C6DCB7",
"^	c #C6A33F",
"/	c #B49237",
"(	c #496835",
"_	c #608148",
":	c #7D976A",
"<	c #CBA53E",
"[	c #745E23",
"}	c #54773D",
"|	c #B69442",
"1	c #CFAC42",
"2	c #D8B143",
"3	c #DDB547",
"4	c #BB993C",
"5	c #7B6427",
"6	c #C6A044",
"7	c #C4A23E",
"8	c #D4AF43",
"9	c #D1AD42",
"0	c #A38633",
"a	c #725D24",
"b	c #947533",
"c	c #BD9F48",
"d	c #BC9E48",
"e	c #A6863B",
"                ",
"                ",
"          .     ",
"    .... ..     ",
"  ..+@#$.%..... ",
"  .&*=-.%;%>,'. ",
" .)!!~.;;{{{{]. ",
" .^!!/.(_____:. ",
" .^!!<[.}____:. ",
" .|12345.(..... ",
"  .67890a..     ",
"  ..bcde...     ",
"    ....        ",
"                ",
"                ",
"                "};
