/* XPM */
static const char * fs_xpm[] = {
"22 22 18 1",
" 	c None",
".	c #000000",
"+	c #77A16E",
"@	c #709867",
"#	c #ACC8A9",
"$	c #0F1308",
"%	c #AAC7A8",
"&	c #B2CBB0",
"*	c #7F9F76",
"=	c #A5C4A3",
"-	c #A8C7A8",
";	c #ADC8AD",
">	c #6B9060",
",	c #A4C3A2",
"'	c #AFC8AD",
")	c #ABC7A8",
"!	c #445B2C",
"~	c #5B7950",
"                      ",
"                      ",
"                      ",
"                      ",
"                      ",
"          .      .    ",
"         ..     ..    ",
"        .+.    .+.    ",
"       .@#.   .@#.    ",
"      $@%&.  $@%&.    ",
"     .*=-;. .*=-;.    ",
"    .>,')%..>,')%.    ",
"     .!~~~. .!~~~.    ",
"      .!~~.  .!~~.    ",
"       .!~.   .!~.    ",
"        .!.    .!.    ",
"         ..     ..    ",
"          .      .    ",
"                      ",
"                      ",
"                      ",
"                      "};
