/* XPM */
static const char * fullscreen_xpm[] = {
"15 15 168 2",
"  	c None",
". 	c #101010",
"+ 	c #404040",
"@ 	c #3F3F3F",
"# 	c #3E3E3E",
"$ 	c #3E3E3D",
"% 	c #3D3D3D",
"& 	c #3D3D3C",
"* 	c #3C3C3B",
"= 	c #0F0F0F",
"- 	c #FEFEFE",
"; 	c #FEFEFD",
"> 	c #FCFCFC",
", 	c #FBFBFA",
"' 	c #FAFAF8",
") 	c #DADAD8",
"! 	c #7C7C7B",
"~ 	c #D7D7D5",
"{ 	c #F4F4F1",
"] 	c #F3F3F0",
"^ 	c #F1F2EE",
"/ 	c #F0F0EC",
"( 	c #EFEFEA",
"_ 	c #3B3C3A",
": 	c #FAFAF9",
"< 	c #F9F9F7",
"[ 	c #F7F7F5",
"} 	c #F6F6F4",
"| 	c #2E2E2E",
"1 	c #000000",
"2 	c #2E2E2D",
"3 	c #F1F1ED",
"4 	c #EFEFEB",
"5 	c #EEEEE9",
"6 	c #ECECE8",
"7 	c #EBEBE6",
"8 	c #3B3B39",
"9 	c #F7F8F6",
"0 	c #F4F5F2",
"a 	c #F3F4F0",
"b 	c #6A6A68",
"c 	c #2D2D2C",
"d 	c #2C2C2B",
"e 	c #676765",
"f 	c #EBECE6",
"g 	c #EAEAE4",
"h 	c #E8E8E2",
"i 	c #E7E7E1",
"j 	c #3A3A38",
"k 	c #F3F3EF",
"l 	c #D0D0CB",
"m 	c #757572",
"n 	c #CDCDC8",
"o 	c #E9E9E3",
"p 	c #E6E7E0",
"q 	c #E5E5DE",
"r 	c #E4E4DC",
"s 	c #393937",
"t 	c #F0F0ED",
"u 	c #686866",
"v 	c #ECECE7",
"w 	c #3B3B3A",
"x 	c #3A3A39",
"y 	c #656562",
"z 	c #E4E4DD",
"A 	c #646461",
"B 	c #E2E2DA",
"C 	c #E0E0D8",
"D 	c #383836",
"E 	c #CFD0CB",
"F 	c #2C2C2C",
"G 	c #CBCCC6",
"H 	c #E5E6DF",
"I 	c #E4E5DD",
"J 	c #E2E4DB",
"K 	c #C4C5BD",
"L 	c #2A2A28",
"M 	c #292A28",
"N 	c #C1C1B9",
"O 	c #373734",
"P 	c #72726E",
"Q 	c #E0E1D8",
"R 	c #DFE0D7",
"S 	c #373735",
"T 	c #6E6F6A",
"U 	c #6C6C67",
"V 	c #363633",
"W 	c #393938",
"X 	c #C8C8C2",
"Y 	c #2B2B29",
"Z 	c #2A2A29",
"` 	c #C5C5BE",
" .	c #DEDED6",
"..	c #DDDDD4",
"+.	c #DCDCD2",
"@.	c #363634",
"#.	c #BEBEB5",
"$.	c #282826",
"%.	c #BABAB0",
"&.	c #353532",
"*.	c #383936",
"=.	c #E1E2D9",
"-.	c #DFE0D8",
";.	c #61615D",
">.	c #DDDED4",
",.	c #60605C",
"'.	c #353633",
").	c #5D5D58",
"!.	c #D5D6CA",
"~.	c #5C5D57",
"{.	c #D2D3C6",
"].	c #D1D2C4",
"^.	c #343431",
"/.	c #383835",
"(.	c #DEDED5",
"_.	c #DCDDD3",
":.	c #DBDBD1",
"<.	c #DADAD0",
"[.	c #D8D9CE",
"}.	c #BCBDB3",
"|.	c #6B6C66",
"1.	c #B9BAB0",
"2.	c #D2D3C7",
"3.	c #D1D2C5",
"4.	c #D0D1C4",
"5.	c #CECFC2",
"6.	c #CDCEC0",
"7.	c #333330",
"8.	c #DADBD0",
"9.	c #D9DACF",
"0.	c #D8D8CD",
"a.	c #D6D6CB",
"b.	c #5E5E59",
"c.	c #272825",
"d.	c #5B5B55",
"e.	c #CECEC1",
"f.	c #CDCDBF",
"g.	c #CBCCBD",
"h.	c #CACABC",
"i.	c #32322F",
"j.	c #D6D7CB",
"k.	c #D4D6C9",
"l.	c #D3D4C8",
"m.	c #D0D2C4",
"n.	c #262724",
"o.	c #262623",
"p.	c #CACBBC",
"q.	c #C8C9BA",
"r.	c #C7C8B8",
"s.	c #C6C7B6",
"t.	c #31322D",
"u.	c #D3D3C7",
"v.	c #D0D0C3",
"w.	c #B2B3A6",
"x.	c #64655D",
"y.	c #AFB0A3",
"z.	c #C7C8B9",
"A.	c #C6C7B7",
"B.	c #C5C6B5",
"C.	c #C3C5B4",
"D.	c #C3C4B3",
"E.	c #31312D",
"F.	c #0D0D0C",
"G.	c #343430",
"H.	c #32332F",
"I.	c #32322E",
"J.	c #31322E",
"K.	c #0C0C0B",
". + + @ @ @ # # $ % & & * * = ",
"+ - ; > , ' ) ! ~ { ] ^ / ( _ ",
"@ , : < [ } | 1 2 3 4 5 6 7 8 ",
"# 9 } 0 a b c 1 d e f g h i j ",
"& { k 3 / ( l m n o h p q r s ",
"* t 4 u v e w 8 x y z A B C D ",
"w E F d G j H I J D K L M N O ",
"x m 1 1 P s B Q R S T 1 1 U V ",
"W X Y Z ` D  ...+.@.#.$.$.%.&.",
"*.=.-.;.>.,.V V '.).!.~.{.].^.",
"/.(._.:.<.[.}.|.1.2.3.4.5.6.7.",
"O 8.9.0.a.b.$.1 c.d.e.f.g.h.i.",
"V j.k.l.{.m.n.1 o.g.p.q.r.s.t.",
"&.u.3.v.5.6.w.x.y.z.A.B.C.D.E.",
"F.^.^.G.7.7.H.i.I.J.E.E.E.E.K."};
