/* XPM */
static const char * home_xpm[] = {
"22 22 7 1",
" 	c None",
".	c #000000",
"+	c #C6DAC6",
"@	c #A8C7A8",
"#	c #83A27E",
"$	c #5B7950",
"%	c #4A6241",
"                      ",
"                      ",
"                      ",
"                      ",
"                      ",
"     ............     ",
"     .....@@.....     ",
"     ....@@@@....     ",
"     ...@@@@@@...     ",
"     ..@@@@@@@@..     ",
"     .@@@@@@@@@@.     ",
"     .##########.     ",
"     .$$$$$$$$$$.     ",
"     .$$$$$$$$$$.     ",
"     .$$$$$$$$$$.     ",
"     .$$$$$$$$$$.     ",
"     .%%%%%%%%%%.     ",
"     ............     ",
"                      ",
"                      ",
"                      ",
"                      "};
