/* XPM */
static const char * last_xpm[] = {
"16 16 44 1",
" 	c None",
".	c #000000",
"+	c #B8D4A4",
"@	c #A6883F",
"#	c #D9B452",
"$	c #D3B050",
"%	c #CFAC4E",
"&	c #D2E3C6",
"*	c #C9DEBB",
"=	c #C9DDBB",
"-	c #A9C993",
";	c #A48C47",
">	c #E0BF62",
",	c #DDB749",
"'	c #D7B043",
")	c #C6DCB7",
"!	c #B0CF9A",
"~	c #BE9E43",
"{	c #DDB444",
"]	c #C5A046",
"^	c #7D976A",
"/	c #608148",
"(	c #496835",
"_	c #B49237",
":	c #C6A33F",
"<	c #54773D",
"[	c #745E23",
"}	c #CBA53E",
"|	c #7B6427",
"1	c #BB993C",
"2	c #DDB547",
"3	c #D8B143",
"4	c #CFAC42",
"5	c #B69442",
"6	c #725D24",
"7	c #A38633",
"8	c #D1AD42",
"9	c #D4AF43",
"0	c #C4A23E",
"a	c #C6A044",
"b	c #A6863B",
"c	c #BC9E48",
"d	c #BD9F48",
"e	c #947533",
"                ",
"                ",
"     .          ",
"     .. ....    ",
" .....+.@#$%..  ",
" .&*=+-+.;>,'.  ",
" .)!!!!--.~{{]. ",
" .^/////(._{{:. ",
" .^////<.[}{{:. ",
" .....(.|12345. ",
"     ..67890a.  ",
"     ...bcde..  ",
"        ....    ",
"                ",
"                ",
"                "};
