/* XPM */
static const char * left_xpm[] = {
"16 16 21 1",
" 	c None",
".	c #000000",
"+	c #624504",
"@	c #684905",
"#	c #BC850A",
"$	c #D1940C",
"%	c #AC7A09",
"&	c #8E6407",
"*	c #825C06",
"=	c #9E7009",
"-	c #B69B5C",
";	c #765305",
">	c #E4C379",
",	c #EED680",
"'	c #F7EECD",
")	c #F5EBC4",
"!	c #FAF5E3",
"~	c #FAF5E5",
"{	c #F9F5E5",
"]	c #FAF7E9",
"^	c #ECD6A4",
"                ",
"                ",
"        .       ",
"       ..       ",
"      .+.       ",
"     .@#.....   ",
"    .@$%&*=-.   ",
"   .;$%$%$%>.   ",
"   .$,,,,,,'.   ",
"    .$,)!~~{.   ",
"     .$].....   ",
"      .^.       ",
"       ..       ",
"        .       ",
"                ",
"                "};
