/* XPM */
static const char * next_xpm[] = {
"22 22 35 1",
" 	c None",
".	c #000000",
"+	c #C6DAC6",
"@	c #77A16E",
"#	c #A8C7A8",
"$	c #ACC8A9",
"%	c #709867",
"&	c #C1D6BD",
"*	c #BDD3B8",
"=	c #BFD4BB",
"-	c #C2D7BE",
";	c #B2CBB0",
">	c #AAC7A8",
",	c #0F1308",
"'	c #AEC5A8",
")	c #AEC8AD",
"!	c #ABC7A8",
"~	c #AAC6A7",
"{	c #A8C6A5",
"]	c #ADC8AD",
"^	c #A5C4A3",
"/	c #7F9F76",
"(	c #A6BFA0",
"_	c #ABC7AA",
":	c #A9C7A6",
"<	c #AFC8AD",
"[	c #A4C3A2",
"}	c #6B9060",
"|	c #83A27E",
"1	c #6C8562",
"2	c #5B7950",
"3	c #445B2C",
"4	c #65815C",
"5	c #506B46",
"6	c #4A6241",
"                      ",
"                      ",
"                      ",
"                      ",
"                      ",
"         .      ...   ",
"         ..     .+.   ",
"         .@.    .#.   ",
"   .......$%.   .#.   ",
"   .&*=---;>%,  .#.   ",
"   .')!!~{]#^/. .#.   ",
"   .(_{{:!>!<[}..|.   ",
"   .1222222223. .2.   ",
"   .455555223.  .2.   ",
"   .......23.   .2.   ",
"         .3.    .2.   ",
"         ..     .6.   ",
"         .      ...   ",
"                      ",
"                      ",
"                      ",
"                      "};
