/* XPM */
static const char * no_zoom_xpm[] = {
"16 16 132 2",
"  	c None",
". 	c #494947",
"+ 	c #4E4E4C",
"@ 	c #4C4C49",
"# 	c #4A4B47",
"$ 	c #5A5A59",
"% 	c #828280",
"& 	c #CFCFCC",
"* 	c #EBEBE5",
"= 	c #E6E6DF",
"- 	c #E0E1D8",
"; 	c #A1A19A",
"> 	c #73736D",
", 	c #424241",
"' 	c #A9A9A7",
") 	c #EBEBE8",
"! 	c #EFDEDB",
"~ 	c #DEA09D",
"{ 	c #D9938E",
"] 	c #D9A9A3",
"^ 	c #DBD0C7",
"/ 	c #C2C3B8",
"( 	c #7F7F77",
"_ 	c #EDEDEA",
": 	c #F0D4D3",
"< 	c #D56462",
"[ 	c #D46A67",
"} 	c #D67E7B",
"| 	c #CC534F",
"1 	c #CD6E68",
"2 	c #D4D5C9",
"3 	c #A1A298",
"4 	c #6D6E6B",
"5 	c #000000",
"6 	c #ECECE6",
"7 	c #ECD9D6",
"8 	c #D7716F",
"9 	c #DC8583",
"0 	c #EFE8E4",
"a 	c #DC9C98",
"b 	c #C8423F",
"c 	c #C32925",
"d 	c #CC8F86",
"e 	c #CDCEC1",
"f 	c #797971",
"g 	c #E8E8E2",
"h 	c #E4C3BE",
"i 	c #D67471",
"j 	c #E8C8C4",
"k 	c #DFA19D",
"l 	c #CB4C48",
"m 	c #D1827C",
"n 	c #D1948C",
"o 	c #C55750",
"p 	c #CCCDBE",
"q 	c #797970",
"r 	c #8D8D8C",
"s 	c #E3E3DC",
"t 	c #DFBEB8",
"u 	c #D2716E",
"v 	c #D9908C",
"w 	c #C93F3C",
"x 	c #D07974",
"y 	c #D9C7BE",
"z 	c #D19D95",
"A 	c #C4564F",
"B 	c #CACBBC",
"C 	c #7B7C72",
"D 	c #8F8F8E",
"E 	c #DEDED5",
"F 	c #DDCAC3",
"G 	c #CE6864",
"H 	c #C42421",
"I 	c #D07D77",
"J 	c #DACBC1",
"K 	c #D5BFB5",
"L 	c #C64C47",
"M 	c #C7897E",
"N 	c #C7C8B8",
"O 	c #78796F",
"P 	c #8D8E8C",
"Q 	c #444441",
"R 	c #D3D4C9",
"S 	c #D5B3AA",
"T 	c #C7524D",
"U 	c #C95F59",
"V 	c #CA746C",
"W 	c #C54C46",
"X 	c #C56961",
"Y 	c #C7C8B7",
"Z 	c #9A9B8D",
"` 	c #757672",
" .	c #B0B0B0",
"..	c #222220",
"+.	c #909188",
"@.	c #CBCBC0",
"#.	c #D1C0B4",
"$.	c #C98C83",
"%.	c #C78279",
"&.	c #C7988D",
"*.	c #C7BDAE",
"=.	c #B4B4A5",
"-.	c #83837A",
";.	c #91918F",
">.	c #070707",
",.	c #424240",
"'.	c #787871",
").	c #B1B2A6",
"!.	c #CBCCBD",
"~.	c #C9CABA",
"{.	c #C6C7B7",
"].	c #909184",
"^.	c #76766E",
"/.	c #B2B2B2",
"(.	c #2D2D2D",
"_.	c #929292",
":.	c #929291",
"<.	c #797A76",
"[.	c #4E4F49",
"}.	c #474741",
"|.	c #5A5A55",
"1.	c #80807D",
"2.	c #999998",
"3.	c #B7B7B7",
"4.	c #050505",
"5.	c #BEBEBE",
"6.	c #080808",
"7.	c #3D3D3D",
"8.	c #A0A0A0",
"9.	c #474747",
"0.	c #989898",
"a.	c #B9B9B9",
"              . + @ #           ",
"          $ % & * = - ; >       ",
"        , ' ) ! ~ { ] ^ / (     ",
"        + _ : < [ } | 1 2 3 4   ",
"      5 6 7 8 9 0 a b c d e f   ",
"      5 g h i j k l m n o p q r ",
"      5 s t u v w x y z A B C D ",
"      5 E F G H I J K L M N O P ",
"        Q R S T U V W X Y Z `  .",
"        ..+.@.#.$.%.&.*.=.-.;.  ",
"        >.,.'.).!.~.{.].^.;./.  ",
"      5 (._.:.<.[.}.|.1.2.3.    ",
"  5 4.(.5.      5.5.5.5.        ",
"  6.7.8.                        ",
"  9.0.a.                        ",
"                                "};
