/* XPM */
static const char * options_xpm[] = {
"22 22 5 1",
" 	c None",
".	c #000000",
"+	c #CFCFCF",
"@	c #797D79",
"#	c #FFFFFF",
"                      ",
"                      ",
"     ...              ",
"     .++.             ",
"      .++.            ",
"  ..   .+.@           ",
"  .+. .++.@           ",
"  .++.++#.@           ",
"   .++#+++.           ",
"    ....+#+.          ",
"     @@@.+#+.         ",
"         .+#+....     ",
"          .++#+#+.    ",
"           .+++.++.   ",
"           .#+.@.+.@  ",
"           .+.@@ ..@  ",
"           .++.   @@  ",
"            .++.      ",
"             ...@     ",
"              @@@     ",
"                      ",
"                      "};
