/* XPM */
static const char * play_xpm[] = {
"22 22 11 1",
" 	c None",
".	c #000000",
"+	c #709867",
"@	c #A6BFA0",
"#	c #C1D6BD",
"$	c #A8C7A8",
"%	c #83A27E",
"&	c #6C8562",
"*	c #5B7950",
"=	c #445B2C",
"-	c #4A6241",
"                      ",
"                      ",
"                      ",
"                      ",
"                      ",
"     ..               ",
"     .+..             ",
"     .@@+..           ",
"     .#$$++.          ",
"     .#$$$$++.        ",
"     .@$$$$$$+..      ",
"     .@%%%%%%%%%.     ",
"     .&******=..      ",
"     .&****==.        ",
"     .&**==.          ",
"     .**=..           ",
"     .-..             ",
"     ..               ",
"                      ",
"                      ",
"                      ",
"                      "};
