/* XPM */
static const char * prev_xpm[] = {
"22 22 35 1",
" 	c None",
".	c #000000",
"+	c #C6DAC6",
"@	c #A8C7A8",
"#	c #77A16E",
"$	c #709867",
"%	c #ACC8A9",
"&	c #0F1308",
"*	c #AAC7A8",
"=	c #B2CBB0",
"-	c #C2D7BE",
";	c #BFD4BB",
">	c #BDD3B8",
",	c #C1D6BD",
"'	c #7F9F76",
")	c #A5C4A3",
"!	c #ADC8AD",
"~	c #A8C6A5",
"{	c #AAC6A7",
"]	c #ABC7A8",
"^	c #AEC8AD",
"/	c #AEC5A8",
"(	c #83A27E",
"_	c #6B9060",
":	c #A4C3A2",
"<	c #AFC8AD",
"[	c #A9C7A6",
"}	c #ABC7AA",
"|	c #A6BFA0",
"1	c #5B7950",
"2	c #445B2C",
"3	c #6C8562",
"4	c #506B46",
"5	c #65815C",
"6	c #4A6241",
"                      ",
"                      ",
"                      ",
"                      ",
"                      ",
"   ...      .         ",
"   .+.     ..         ",
"   .@.    .#.         ",
"   .@.   .$%.......   ",
"   .@.  &$*=---;>,.   ",
"   .@. .')@!~{]]^/.   ",
"   .(.._:<]*][~~}|.   ",
"   .1. .2111111113.   ",
"   .1.  .211444445.   ",
"   .1.   .21.......   ",
"   .1.    .2.         ",
"   .6.     ..         ",
"   ...      .         ",
"                      ",
"                      ",
"                      ",
"                      "};
