/* XPM */
static const char * slideshow_xpm[] = {
"16 16 7 1",
" 	c None",
".	c #000000",
"+	c #C7C8B8",
"@	c #7F7F7F",
"#	c #D9DACF",
"$	c #E4E4DC",
"%	c #00007F",
"                ",
" ..........     ",
" .++++++++.@    ",
" .+.........    ",
" .+.#######.@   ",
" .+.#.........  ",
" .+.#.$$$$$$$.@ ",
" .+.#.$$$%%$$.@@",
" .+.#.$$$$%%$.@@",
" ...#.%%%%%%%.@@",
"  @.#.$$$$%%$.@@",
"   ...$$$%%$$.@@",
"    @.$$$$$$$.@@",
"     .........@@",
"      @@@@@@@@@@",
"       @@@@@@@@@"};
