/* XPM */
static const char * up_xpm[] = {
"16 16 21 1",
" 	c None",
".	c #000000",
"+	c #D1940C",
"@	c #765305",
"#	c #EED680",
"$	c #684905",
"%	c #AC7A09",
"&	c #ECD6A4",
"*	c #FAF7E9",
"=	c #F5EBC4",
"-	c #BC850A",
";	c #624504",
">	c #FAF5E3",
",	c #8E6407",
"'	c #FAF5E5",
")	c #825C06",
"!	c #9E7009",
"~	c #F9F5E5",
"{	c #F7EECD",
"]	c #E4C379",
"^	c #B69B5C",
"                ",
"                ",
"                ",
"       ..       ",
"      .+@.      ",
"     .+#+$.     ",
"    .+##%+$.    ",
"   .&*=#+%-;.   ",
"  ....>#%,....  ",
"     .'#+).     ",
"     .'#%!.     ",
"     .~{]^.     ",
"     ......     ",
"                ",
"                ",
"                "};
