/* XPM */
static const char * view_thumbs_xpm[] = {
"16 16 5 1",
" 	c None",
".	c #303030",
"+	c #000000",
"@	c #FFFFFF",
"#	c #FFDCA8",
"                ",
"  ...+    ...+  ",
"  .@@+    .@@+  ",
"  .@#+    .@#+  ",
"  ++++    ++++  ",
"                ",
" ++++++  ++++++ ",
"                ",
"                ",
"  ...+    ...+  ",
"  .@@+    .@@+  ",
"  .@#+    .@#+  ",
"  ++++    ++++  ",
"                ",
" ++++++  ++++++ ",
"                "};
