/* XPM */
static const char * zoom_in_xpm[] = {
"16 16 129 2",
"  	c None",
". 	c #494947",
"+ 	c #4E4E4C",
"@ 	c #4C4C49",
"# 	c #4A4B47",
"$ 	c #5A5A59",
"% 	c #828280",
"& 	c #CFCFCC",
"* 	c #EBEBE5",
"= 	c #E6E6DF",
"- 	c #E0E1D8",
"; 	c #A1A19A",
"> 	c #73736D",
", 	c #424241",
"' 	c #A9A9A7",
") 	c #EBEBE8",
"! 	c #F5F5F2",
"~ 	c #EFEFEC",
"{ 	c #EAEAE4",
"] 	c #E3E3DC",
"^ 	c #DDDDD4",
"/ 	c #C2C3B8",
"( 	c #7F7F77",
"_ 	c #EDEDEA",
": 	c #FAFAF8",
"< 	c #FAFAF9",
"[ 	c #BEBEBB",
"} 	c #6D6D6A",
"| 	c #C5C6BF",
"1 	c #DEDFD5",
"2 	c #D4D5C9",
"3 	c #A1A298",
"4 	c #6D6E6B",
"5 	c #000000",
"6 	c #ECECE6",
"7 	c #F1F1EE",
"8 	c #F0F0ED",
"9 	c #E8E8E5",
"0 	c #979795",
"a 	c #2B2B29",
"b 	c #A9A9A4",
"c 	c #CFCFC6",
"d 	c #D5D6C9",
"e 	c #CDCEC1",
"f 	c #797971",
"g 	c #E8E8E2",
"h 	c #EDEDE8",
"i 	c #B7B7B4",
"j 	c #6B6B6A",
"k 	c #40403F",
"l 	c #121212",
"m 	c #484846",
"n 	c #585955",
"o 	c #D3D4C7",
"p 	c #CCCDBE",
"q 	c #797970",
"r 	c #8D8D8C",
"s 	c #E7E7E1",
"t 	c #B0B1AC",
"u 	c #656563",
"v 	c #3D3D3B",
"w 	c #121211",
"x 	c #464642",
"y 	c #565651",
"z 	c #D0D1C4",
"A 	c #CACBBC",
"B 	c #7B7C72",
"C 	c #8F8F8E",
"D 	c #DEDED5",
"E 	c #E1E1D9",
"F 	c #DCDCD5",
"G 	c #D4D4CD",
"H 	c #8C8C87",
"I 	c #282927",
"J 	c #A1A299",
"K 	c #C5C6BA",
"L 	c #CDCEC0",
"M 	c #C7C8B8",
"N 	c #78796F",
"O 	c #8D8E8C",
"P 	c #444441",
"Q 	c #D3D4C9",
"R 	c #DADAD0",
"S 	c #A8A8A0",
"T 	c #62635D",
"U 	c #B5B6AB",
"V 	c #CECFC1",
"W 	c #C7C8B7",
"X 	c #9A9B8D",
"Y 	c #757672",
"Z 	c #B0B0B0",
"` 	c #222220",
" .	c #909188",
"..	c #CBCBC0",
"+.	c #D1D2C6",
"@.	c #D0D0C2",
"#.	c #CCCDBF",
"$.	c #C8C9BA",
"%.	c #B4B4A5",
"&.	c #83837A",
"*.	c #91918F",
"=.	c #070707",
"-.	c #424240",
";.	c #787871",
">.	c #B1B2A6",
",.	c #CBCCBD",
"'.	c #C9CABA",
").	c #C6C7B7",
"!.	c #909184",
"~.	c #76766E",
"{.	c #B2B2B2",
"].	c #2D2D2D",
"^.	c #929292",
"/.	c #929291",
"(.	c #797A76",
"_.	c #4E4F49",
":.	c #474741",
"<.	c #5A5A55",
"[.	c #80807D",
"}.	c #999998",
"|.	c #B7B7B7",
"1.	c #050505",
"2.	c #BEBEBE",
"3.	c #080808",
"4.	c #3D3D3D",
"5.	c #A0A0A0",
"6.	c #474747",
"7.	c #989898",
"8.	c #B9B9B9",
"              . + @ #           ",
"          $ % & * = - ; >       ",
"        , ' ) ! ~ { ] ^ / (     ",
"        + _ : < [ } | 1 2 3 4   ",
"      5 6 7 8 9 0 a b c d e f   ",
"      5 g h i j k l m n o p q r ",
"      5 ] s t u v w x y z A B C ",
"      5 D E F G H I J K L M N O ",
"        P Q R R S T U V W X Y Z ",
"        `  ...o +.@.#.$.%.&.*.  ",
"        =.-.;.>.,.'.).!.~.*.{.  ",
"      5 ].^./.(._.:.<.[.}.|.    ",
"  5 1.].2.      2.2.2.2.        ",
"  3.4.5.                        ",
"  6.7.8.                        ",
"                                "};
