/* XPM */
static const char * zoom_out_xpm[] = {
"16 16 128 2",
"  	c None",
". 	c #494947",
"+ 	c #4E4E4C",
"@ 	c #4C4C49",
"# 	c #4A4B47",
"$ 	c #5A5A59",
"% 	c #828280",
"& 	c #CFCFCC",
"* 	c #EBEBE5",
"= 	c #E6E6DF",
"- 	c #E0E1D8",
"; 	c #A1A19A",
"> 	c #73736D",
", 	c #424241",
"' 	c #A9A9A7",
") 	c #EBEBE8",
"! 	c #F5F5F2",
"~ 	c #EFEFEC",
"{ 	c #EAEAE4",
"] 	c #E3E3DC",
"^ 	c #DDDDD4",
"/ 	c #C2C3B8",
"( 	c #7F7F77",
"_ 	c #EDEDEA",
": 	c #FAFAF8",
"< 	c #FAFAF9",
"[ 	c #F2F2EF",
"} 	c #EBEBE6",
"| 	c #E5E5DE",
"1 	c #DEDFD5",
"2 	c #D4D5C9",
"3 	c #A1A298",
"4 	c #6D6E6B",
"5 	c #000000",
"6 	c #ECECE6",
"7 	c #F1F1EE",
"8 	c #F0F0ED",
"9 	c #E8E8E5",
"0 	c #E1E1DE",
"a 	c #DBDBD7",
"b 	c #D5D5CF",
"c 	c #CFCFC6",
"d 	c #D5D6C9",
"e 	c #CDCEC1",
"f 	c #797971",
"g 	c #E8E8E2",
"h 	c #EDEDE8",
"i 	c #B7B7B4",
"j 	c #6B6B6A",
"k 	c #60605E",
"l 	c #5D5D5B",
"m 	c #5B5B58",
"n 	c #585955",
"o 	c #D3D4C7",
"p 	c #CCCDBE",
"q 	c #797970",
"r 	c #8D8D8C",
"s 	c #E7E7E1",
"t 	c #B0B1AC",
"u 	c #656563",
"v 	c #5A5A56",
"w 	c #585854",
"x 	c #565651",
"y 	c #D0D1C4",
"z 	c #CACBBC",
"A 	c #7B7C72",
"B 	c #8F8F8E",
"C 	c #DEDED5",
"D 	c #E1E1D9",
"E 	c #DCDCD5",
"F 	c #D4D4CD",
"G 	c #D1D1CA",
"H 	c #CECEC6",
"I 	c #CACBC0",
"J 	c #C5C6BA",
"K 	c #CDCEC0",
"L 	c #C7C8B8",
"M 	c #78796F",
"N 	c #8D8E8C",
"O 	c #444441",
"P 	c #D3D4C9",
"Q 	c #DADAD0",
"R 	c #D8D9CE",
"S 	c #D6D6CA",
"T 	c #D2D3C6",
"U 	c #CECFC1",
"V 	c #C7C8B7",
"W 	c #9A9B8D",
"X 	c #757672",
"Y 	c #B0B0B0",
"Z 	c #222220",
"` 	c #909188",
" .	c #CBCBC0",
"..	c #D1D2C6",
"+.	c #D0D0C2",
"@.	c #CCCDBF",
"#.	c #C8C9BA",
"$.	c #B4B4A5",
"%.	c #83837A",
"&.	c #91918F",
"*.	c #070707",
"=.	c #424240",
"-.	c #787871",
";.	c #B1B2A6",
">.	c #CBCCBD",
",.	c #C9CABA",
"'.	c #C6C7B7",
").	c #909184",
"!.	c #76766E",
"~.	c #B2B2B2",
"{.	c #2D2D2D",
"].	c #929292",
"^.	c #929291",
"/.	c #797A76",
"(.	c #4E4F49",
"_.	c #474741",
":.	c #5A5A55",
"<.	c #80807D",
"[.	c #999998",
"}.	c #B7B7B7",
"|.	c #050505",
"1.	c #BEBEBE",
"2.	c #080808",
"3.	c #3D3D3D",
"4.	c #A0A0A0",
"5.	c #474747",
"6.	c #989898",
"7.	c #B9B9B9",
"              . + @ #           ",
"          $ % & * = - ; >       ",
"        , ' ) ! ~ { ] ^ / (     ",
"        + _ : < [ } | 1 2 3 4   ",
"      5 6 7 8 9 0 a b c d e f   ",
"      5 g h i j k l m n o p q r ",
"      5 ] s t u m v w x y z A B ",
"      5 C D E F G H I J K L M N ",
"        O P Q Q R S T U V W X Y ",
"        Z `  .o ..+.@.#.$.%.&.  ",
"        *.=.-.;.>.,.'.).!.&.~.  ",
"      5 {.].^./.(._.:.<.[.}.    ",
"  5 |.{.1.      1.1.1.1.        ",
"  2.3.4.                        ",
"  5.6.7.                        ",
"                                "};
