/* XPM */
static const char * zoom_fit_xpm[] = {
"16 16 131 2",
"  	c None",
". 	c #494947",
"+ 	c #3F403E",
"@ 	c #474844",
"# 	c #5A5A59",
"$ 	c #828280",
"% 	c #CFCFCC",
"& 	c #9C9C98",
"* 	c #6D6D6A",
"= 	c #B2B3AC",
"- 	c #9E9E97",
"; 	c #73736D",
"> 	c #424241",
", 	c #A9A9A7",
"' 	c #EBEBE8",
") 	c #B3B3B1",
"! 	c #20201F",
"~ 	c #090909",
"{ 	c #484845",
"] 	c #B9B9B1",
"^ 	c #C2C3B8",
"/ 	c #7F7F77",
"( 	c #4E4E4C",
"_ 	c #EDEDEA",
": 	c #FAFAF8",
"< 	c #CECECD",
"[ 	c #6D6D6C",
"} 	c #1F1F1E",
"| 	c #7F7F7B",
"1 	c #C9C9C1",
"2 	c #D4D5C9",
"3 	c #A1A298",
"4 	c #6D6E6B",
"5 	c #000000",
"6 	c #E2E2DD",
"7 	c #9A9A97",
"8 	c #7D7D7C",
"9 	c #D8D8D5",
"0 	c #979795",
"a 	c #2B2B29",
"b 	c #A9A9A4",
"c 	c #CFCFC6",
"d 	c #32322F",
"e 	c #ACADA2",
"f 	c #76776E",
"g 	c #B3B3AE",
"h 	c #262625",
"i 	c #272727",
"j 	c #5B5B5A",
"k 	c #40403F",
"l 	c #121212",
"m 	c #484846",
"n 	c #585955",
"o 	c #050605",
"p 	c #484943",
"q 	c #61615A",
"r 	c #8D8D8C",
"s 	c #AFAFA8",
"t 	c #242423",
"u 	c #252524",
"v 	c #565653",
"w 	c #3D3D3B",
"x 	c #121211",
"y 	c #464642",
"z 	c #565651",
"A 	c #050505",
"B 	c #474742",
"C 	c #63635B",
"D 	c #8F8F8E",
"E 	c #D4D5CC",
"F 	c #8F8F89",
"G 	c #72726E",
"H 	c #C5C5BF",
"I 	c #8C8C87",
"J 	c #282927",
"K 	c #A1A299",
"L 	c #C5C6BA",
"M 	c #30302D",
"N 	c #A6A79A",
"O 	c #75766C",
"P 	c #8D8E8C",
"Q 	c #444441",
"R 	c #D3D4C9",
"S 	c #DADAD0",
"T 	c #B4B4AC",
"U 	c #61615D",
"V 	c #1C1C1B",
"W 	c #76766F",
"X 	c #BABBAF",
"Y 	c #C7C8B7",
"Z 	c #9A9B8D",
"` 	c #757672",
" .	c #B0B0B0",
"..	c #222220",
"+.	c #909188",
"@.	c #CBCBC0",
"#.	c #9A9A91",
"$.	c #1B1B1A",
"%.	c #080807",
"&.	c #40403B",
"*.	c #A8A89B",
"=.	c #B4B4A5",
"-.	c #83837A",
";.	c #91918F",
">.	c #070707",
",.	c #424240",
"'.	c #787871",
").	c #B1B2A6",
"!.	c #86867D",
"~.	c #5F5F58",
"{.	c #9D9E91",
"].	c #8D8E82",
"^.	c #76766E",
"/.	c #B2B2B2",
"(.	c #2D2D2D",
"_.	c #929292",
":.	c #929291",
"<.	c #797A76",
"[.	c #4A4A45",
"}.	c #3C3C37",
"|.	c #585852",
"1.	c #80807D",
"2.	c #999998",
"3.	c #B7B7B7",
"4.	c #BEBEBE",
"5.	c #080808",
"6.	c #3D3D3D",
"7.	c #A0A0A0",
"8.	c #474747",
"9.	c #989898",
"0.	c #B9B9B9",
"              . . + @           ",
"          # $ % & * = - ;       ",
"        > , ' ) ! ~ { ] ^ /     ",
"        ( _ : < [ } | 1 2 3 4   ",
"      5 6 7 8 9 0 a b c d e f   ",
"      5 g h i j k l m n o p q r ",
"      5 s t u v w x y z A B C D ",
"      5 E F G H I J K L M N O P ",
"        Q R S T U V W X Y Z `  .",
"        ..+.@.#.$.%.&.*.=.-.;.  ",
"        >.,.'.).!.~.{.].^.;./.  ",
"      5 (._.:.<.[.}.|.1.2.3.    ",
"  5 A (.4.      4.4.4.4.        ",
"  5.6.7.                        ",
"  8.9.0.                        ",
"                                "};
