/* XPM */
static char * folder_link_open_xpm[] = {
"16 16 92 2",
"  	c None",
". 	c #3D4046",
"+ 	c #46484F",
"@ 	c #43464E",
"# 	c #6F7480",
"$ 	c #AEB8CE",
"% 	c #C0CCE4",
"& 	c #BDC8E3",
"* 	c #959FB8",
"= 	c #393C41",
"- 	c #A1AAC0",
"; 	c #9FACC8",
"> 	c #9CA9C6",
", 	c #9CA9C7",
"' 	c #808BA3",
") 	c #3B3F46",
"! 	c #9CA7BE",
"~ 	c #838CA0",
"{ 	c #929AAC",
"] 	c #98A0B2",
"^ 	c #98A0B1",
"/ 	c #979EB1",
"( 	c #858A97",
"_ 	c #8C919C",
": 	c #878B96",
"< 	c #7A808D",
"[ 	c #868EA2",
"} 	c #32353C",
"| 	c #373A41",
"1 	c #8F98AE",
"2 	c #8E93A0",
"3 	c #C9CBD0",
"4 	c #DADBDF",
"5 	c #D8DADE",
"6 	c #D5D7DB",
"7 	c #C6C8CD",
"8 	c #7A7B7F",
"9 	c #797B7F",
"0 	c #727478",
"a 	c #5C6067",
"b 	c #5D6371",
"c 	c #212328",
"d 	c #7C8497",
"e 	c #7E818A",
"f 	c #C0C0C2",
"g 	c #D0D0D0",
"h 	c #CBCBCC",
"i 	c #C6C6C7",
"j 	c #969698",
"k 	c #A6A9AF",
"l 	c #FFFFFF",
"m 	c #363739",
"n 	c #24262A",
"o 	c #6A6D75",
"p 	c #6E6F70",
"q 	c #7C7C7C",
"r 	c #7F7F7F",
"s 	c #7E7E7E",
"t 	c #7C7C7D",
"u 	c #A8AAB2",
"v 	c #B9C4DF",
"w 	c #000000",
"x 	c #3E414A",
"y 	c #37373B",
"z 	c #B0B5C2",
"A 	c #BCC6D9",
"B 	c #A9B5D0",
"C 	c #A0ADCC",
"D 	c #353A44",
"E 	c #3B3E46",
"F 	c #A2ADC5",
"G 	c #8F9CB8",
"H 	c #30343D",
"I 	c #363A42",
"J 	c #939EB6",
"K 	c #7F8AA5",
"L 	c #2A2E37",
"M 	c #363941",
"N 	c #8E98B0",
"O 	c #75809A",
"P 	c #272B33",
"Q 	c #363A41",
"R 	c #919AB4",
"S 	c #7A85A0",
"T 	c #292C35",
"U 	c #383B42",
"V 	c #99A3BD",
"W 	c #8994B0",
"X 	c #2E313B",
"Y 	c #131316",
"Z 	c #353840",
"` 	c #0F1214",
"    . + + @                     ",
"  # $ % % & *                   ",
"= - ; > , > > '                 ",
") ! ~ { ] ^ ^ / ( _ _ _ : < [ } ",
"| 1 2 3 4 5 6 7 8 9 9 9 0 a b c ",
"} d e f g h i j k l l l l l l m ",
"n o p q r s t u v l w w w w l x ",
"y z A A A A A B C C l w w w l D ",
"E F G G G G G G G l w w w w l H ",
"I J K K K K K K K l w w l w l L ",
"M N O O O O O O l w w l O l l P ",
"Q R S S S S S S l w l S S S S T ",
"U V W W W W W W W l W W W W W X ",
"Y Z H H H H H H H H H H H H H ` ",
"                                ",
"                                "};
