/* XPM */
static char * folder_open_xpm[] = {
"16 16 94 2",
"  	c None",
". 	c #3D4046",
"+ 	c #46484F",
"@ 	c #43464E",
"# 	c #6F7480",
"$ 	c #AEB8CE",
"% 	c #C0CCE4",
"& 	c #BDC8E3",
"* 	c #959FB8",
"= 	c #393C41",
"- 	c #A1AAC0",
"; 	c #9FACC8",
"> 	c #9CA9C6",
", 	c #9CA9C7",
"' 	c #808BA3",
") 	c #3B3F46",
"! 	c #9CA7BE",
"~ 	c #838CA0",
"{ 	c #929AAC",
"] 	c #98A0B2",
"^ 	c #98A0B1",
"/ 	c #979EB1",
"( 	c #858A97",
"_ 	c #8C919C",
": 	c #878B96",
"< 	c #7A808D",
"[ 	c #868EA2",
"} 	c #32353C",
"| 	c #373A41",
"1 	c #8F98AE",
"2 	c #8E93A0",
"3 	c #C9CBD0",
"4 	c #DADBDF",
"5 	c #D8DADE",
"6 	c #D5D7DB",
"7 	c #C6C8CD",
"8 	c #7A7B7F",
"9 	c #797B7F",
"0 	c #727478",
"a 	c #5C6067",
"b 	c #5D6371",
"c 	c #212328",
"d 	c #7C8497",
"e 	c #7E818A",
"f 	c #C0C0C2",
"g 	c #D0D0D0",
"h 	c #CBCBCC",
"i 	c #C6C6C7",
"j 	c #969698",
"k 	c #A6A9AF",
"l 	c #A6A8AF",
"m 	c #A5A7AD",
"n 	c #A0A3AA",
"o 	c #9FA2AA",
"p 	c #363739",
"q 	c #24262A",
"r 	c #6A6D75",
"s 	c #6E6F70",
"t 	c #7C7C7C",
"u 	c #7F7F7F",
"v 	c #7E7E7E",
"w 	c #7C7C7D",
"x 	c #A8AAB2",
"y 	c #B9C4DF",
"z 	c #3E414A",
"A 	c #37373B",
"B 	c #B0B5C2",
"C 	c #BCC6D9",
"D 	c #A9B5D0",
"E 	c #A0ADCC",
"F 	c #353A44",
"G 	c #3B3E46",
"H 	c #A2ADC5",
"I 	c #8F9CB8",
"J 	c #30343D",
"K 	c #363A42",
"L 	c #939EB6",
"M 	c #7F8AA5",
"N 	c #2A2E37",
"O 	c #363941",
"P 	c #8E98B0",
"Q 	c #75809A",
"R 	c #272B33",
"S 	c #363A41",
"T 	c #919AB4",
"U 	c #7A85A0",
"V 	c #292C35",
"W 	c #383B42",
"X 	c #99A3BD",
"Y 	c #8994B0",
"Z 	c #2E313B",
"` 	c #131316",
" .	c #353840",
"..	c #0F1214",
"    . + + @                     ",
"  # $ % % & *                   ",
"= - ; > , > > '                 ",
") ! ~ { ] ^ ^ / ( _ _ _ : < [ } ",
"| 1 2 3 4 5 6 7 8 9 9 9 0 a b c ",
"} d e f g h i j k l l l m n o p ",
"q r s t u v w x y y y y y y y z ",
"A B C C C C C D E E E E E E E F ",
"G H I I I I I I I I I I I I I J ",
"K L M M M M M M M M M M M M M N ",
"O P Q Q Q Q Q Q Q Q Q Q Q Q Q R ",
"S T U U U U U U U U U U U U U V ",
"W X Y Y Y Y Y Y Y Y Y Y Y Y Y Z ",
"`  .J J J J J J J J J J J J J ..",
"                                ",
"                                "};
