/* XPM */
static char * folder_xpm[] = {
"16 16 135 2",
"  	c None",
". 	c #353943",
"+ 	c #3C414C",
"@ 	c #5C6374",
"# 	c #9AA6C2",
"$ 	c #ABB9D8",
"% 	c #8C97B1",
"& 	c #272A32",
"* 	c #757E97",
"= 	c #808BA5",
"- 	c #5F6677",
"; 	c #1F2228",
"> 	c #5F677A",
", 	c #626A7A",
"' 	c #7A8194",
") 	c #A4AFC8",
"! 	c #A4AEC8",
"~ 	c #393D45",
"{ 	c #282A31",
"] 	c #868EA3",
"^ 	c #98A2B9",
"/ 	c #97A2B8",
"( 	c #97A1B8",
"_ 	c #A7B2CD",
": 	c #B4C0E0",
"< 	c #B3C0E0",
"[ 	c #B3C0DF",
"} 	c #B2BFDF",
"| 	c #B2BFDE",
"1 	c #B1BEDD",
"2 	c #3B404A",
"3 	c #3A3E47",
"4 	c #AFBBD8",
"5 	c #B2BEDD",
"6 	c #B0BDDC",
"7 	c #B1BDDD",
"8 	c #B0BDDD",
"9 	c #AEBCDB",
"0 	c #AEBBDB",
"a 	c #AEBADA",
"b 	c #ADBAD9",
"c 	c #ACB9D8",
"d 	c #393E48",
"e 	c #AFBCDC",
"f 	c #AFBCDB",
"g 	c #ADBADA",
"h 	c #ACB8D8",
"i 	c #ABB8D7",
"j 	c #AAB7D6",
"k 	c #AAB6D6",
"l 	c #AAB6D5",
"m 	c #A9B6D4",
"n 	c #A8B5D4",
"o 	c #383C47",
"p 	c #393D48",
"q 	c #ACB8D7",
"r 	c #A9B6D5",
"s 	c #A9B5D4",
"t 	c #A7B4D3",
"u 	c #A6B3D2",
"v 	c #A5B2D1",
"w 	c #A5B1D0",
"x 	c #A4B1CF",
"y 	c #A3B0CF",
"z 	c #A3AFCE",
"A 	c #A2AFCD",
"B 	c #353944",
"C 	c #383C46",
"D 	c #A8B4D3",
"E 	c #A6B2D1",
"F 	c #A4B0CF",
"G 	c #A2AECC",
"H 	c #A1ADCB",
"I 	c #A0ACCA",
"J 	c #9FABC9",
"K 	c #9EAAC8",
"L 	c #9DAAC8",
"M 	c #9CA8C7",
"N 	c #343842",
"O 	c #363A44",
"P 	c #A2AECD",
"Q 	c #A1ADCC",
"R 	c #A0ADCB",
"S 	c #9EABC9",
"T 	c #9CA9C7",
"U 	c #9CA8C6",
"V 	c #9BA7C5",
"W 	c #9AA7C4",
"X 	c #9AA6C3",
"Y 	c #99A5C3",
"Z 	c #98A4C2",
"` 	c #97A3C1",
" .	c #323640",
"..	c #9CA9C6",
"+.	c #9BA8C6",
"@.	c #9AA6C4",
"#.	c #97A4C1",
"$.	c #97A3C0",
"%.	c #96A2BF",
"&.	c #95A1BE",
"*.	c #94A0BD",
"=.	c #93A0BD",
"-.	c #939FBC",
";.	c #929EBB",
">.	c #31353E",
",.	c #323740",
"'.	c #96A2C0",
").	c #95A1BF",
"!.	c #939FBD",
"~.	c #919DBA",
"{.	c #909CB9",
"].	c #8F9BB8",
"^.	c #8F9BB7",
"/.	c #8E9AB6",
"(.	c #8D99B5",
"_.	c #2F333C",
":.	c #31353F",
"<.	c #939FBB",
"[.	c #8E9AB7",
"}.	c #8C98B4",
"|.	c #8B97B3",
"1.	c #8A96B3",
"2.	c #8A95B2",
"3.	c #8995B1",
"4.	c #8793AF",
"5.	c #2D313B",
"6.	c #101215",
"7.	c #31343E",
"8.	c #30343E",
"9.	c #30343D",
"0.	c #2E333B",
"a.	c #2E323B",
"b.	c #2E313B",
"c.	c #2D313A",
"d.	c #0F1013",
"    . + + +                     ",
"  @ # $ $ $ %                   ",
"& * = = = = = -                 ",
"; > , , , , , ' ) ) ! ! ! ! ! ~ ",
"{ ] ^ ^ ^ / ( _ : < [ } | | 1 2 ",
"3 4 5 1 1 1 6 7 8 6 9 0 a b c d ",
"2 8 e e f 0 a g h i j k l m n o ",
"p q i j l r s t u v w x y z A B ",
"C D u E w F z A G H I J K L M N ",
"O P Q R I S K T U V W X Y Z `  .",
"N ..+.V @.Y Z #.$.%.&.*.=.-.;.>.",
",.#.'.).&.*.!.;.;.~.{.].^./.(._.",
":.<.;.~.{.].[.(.(.}.|.1.2.3.4.5.",
"6.7.8.9.9._._.0.a.b.5.5.5.5.c.d.",
"                                ",
"                                "};
