/* XPM */
static char * folder_go_xpm[] = {
"16 14 109 2",
"  	c None",
". 	c #353943",
"+ 	c #3C414C",
"@ 	c #5C6374",
"# 	c #9AA6C2",
"$ 	c #ABB9D8",
"% 	c #8C97B1",
"& 	c #272A32",
"* 	c #757E97",
"= 	c #808BA5",
"- 	c #5F6677",
"; 	c #1F2228",
"> 	c #5F677A",
", 	c #626A7A",
"' 	c #7A8194",
") 	c #929CB2",
"! 	c #A3AEC7",
"~ 	c #A4AEC8",
"{ 	c #393D45",
"] 	c #282A31",
"^ 	c #868EA3",
"/ 	c #98A2B9",
"( 	c #97A2B8",
"_ 	c #97A1B8",
": 	c #A7B2CD",
"< 	c #9CA6C2",
"[ 	c #FFFFFF",
"} 	c #B1BEDE",
"| 	c #B2BFDE",
"1 	c #B1BEDD",
"2 	c #3B404A",
"3 	c #3A3E47",
"4 	c #AFBBD8",
"5 	c #B2BEDD",
"6 	c #B0BDDC",
"7 	c #B1BDDD",
"8 	c #AEBBDB",
"9 	c #040405",
"0 	c #AEBADA",
"a 	c #ADBAD9",
"b 	c #ACB9D8",
"c 	c #393E48",
"d 	c #AFBCDC",
"e 	c #ADBADA",
"f 	c #000000",
"g 	c #A9B6D4",
"h 	c #A8B5D4",
"i 	c #383C47",
"j 	c #393D48",
"k 	c #ABB7D6",
"l 	c #A9B6D5",
"m 	c #A2AFCD",
"n 	c #353944",
"o 	c #383C46",
"p 	c #A6B2D1",
"q 	c #A5B2D1",
"r 	c #9CA8C7",
"s 	c #343842",
"t 	c #363A44",
"u 	c #A2AECD",
"v 	c #A1ADCC",
"w 	c #98A4C2",
"x 	c #97A3C1",
"y 	c #323640",
"z 	c #9CA9C6",
"A 	c #9BA8C6",
"B 	c #9BA7C5",
"C 	c #9AA6C4",
"D 	c #99A5C3",
"E 	c #97A4C1",
"F 	c #95A1BE",
"G 	c #0E0F12",
"H 	c #93A0BD",
"I 	c #939FBC",
"J 	c #929EBB",
"K 	c #31353E",
"L 	c #323740",
"M 	c #96A2C0",
"N 	c #95A1BF",
"O 	c #94A0BD",
"P 	c #939FBD",
"Q 	c #8A95B1",
"R 	c #8F9BB8",
"S 	c #8F9BB7",
"T 	c #8E9AB6",
"U 	c #8D99B5",
"V 	c #2F333C",
"W 	c #31353F",
"X 	c #939FBB",
"Y 	c #919DBA",
"Z 	c #909CB9",
"` 	c #8E9AB7",
" .	c #8591AB",
"..	c #8C98B4",
"+.	c #8B97B3",
"@.	c #8A96B3",
"#.	c #8A95B2",
"$.	c #8995B1",
"%.	c #8793AF",
"&.	c #2D313B",
"*.	c #101215",
"=.	c #31343E",
"-.	c #30343E",
";.	c #30343D",
">.	c #2E333B",
",.	c #2E323B",
"'.	c #2E313B",
").	c #2D313A",
"!.	c #0F1013",
"    . + + +                     ",
"  @ # $ $ $ %                   ",
"& * = = = = = -                 ",
"; > , , , , , ' ) ! ~ ~ ~ ~ ~ { ",
"] ^ / / / ( _ : < [ [ } | | 1 2 ",
"3 4 5 1 1 1 6 7 8 [ 9 [ 0 a b c ",
"2 d e [ [ [ [ [ [ [ f f [ g h i ",
"j k l [ f f f f f f f f f [ m n ",
"o p q [ f f f f f f f f f [ r s ",
"t u v [ [ [ [ [ [ [ f f [ w x y ",
"s z A B C D w E F [ G [ H I J K ",
"L E M N F O P J Q [ [ R S T U V ",
"W X J Y Z R ` U  ...+.@.#.$.%.&.",
"*.=.-.;.;.V V >.,.'.&.&.&.&.).!."};
