/* XPM */
static char * folder_link_xpm[] = {
"16 16 118 2",
"  	c None",
". 	c #353943",
"+ 	c #3C414C",
"@ 	c #5C6374",
"# 	c #9AA6C2",
"$ 	c #ABB9D8",
"% 	c #8C97B1",
"& 	c #272A32",
"* 	c #757E97",
"= 	c #808BA5",
"- 	c #5F6677",
"; 	c #1F2228",
"> 	c #5F677A",
", 	c #626A7A",
"' 	c #7A8194",
") 	c #A4AFC8",
"! 	c #A4AEC8",
"~ 	c #393D45",
"{ 	c #282A31",
"] 	c #868EA3",
"^ 	c #98A2B9",
"/ 	c #97A2B8",
"( 	c #97A1B8",
"_ 	c #A7B2CD",
": 	c #B4C0E0",
"< 	c #B3C0E0",
"[ 	c #B3C0DF",
"} 	c #B2BFDF",
"| 	c #B2BFDE",
"1 	c #B1BEDD",
"2 	c #3B404A",
"3 	c #3A3E47",
"4 	c #AFBBD8",
"5 	c #B2BEDD",
"6 	c #B0BDDC",
"7 	c #B1BDDD",
"8 	c #B0BDDD",
"9 	c #FFFFFF",
"0 	c #393E48",
"a 	c #AFBCDC",
"b 	c #AFBCDB",
"c 	c #AEBBDB",
"d 	c #AEBADA",
"e 	c #ADBADA",
"f 	c #ACB8D8",
"g 	c #000000",
"h 	c #383C47",
"i 	c #393D48",
"j 	c #ACB8D7",
"k 	c #ABB8D7",
"l 	c #AAB7D6",
"m 	c #AAB6D5",
"n 	c #A9B6D5",
"o 	c #A9B5D4",
"p 	c #A7B4D3",
"q 	c #A6B3D2",
"r 	c #A5B2D1",
"s 	c #353944",
"t 	c #383C46",
"u 	c #A8B4D3",
"v 	c #A6B2D1",
"w 	c #A5B1D0",
"x 	c #A4B0CF",
"y 	c #A3AFCE",
"z 	c #A2AFCD",
"A 	c #A2AECC",
"B 	c #343842",
"C 	c #363A44",
"D 	c #A2AECD",
"E 	c #A1ADCC",
"F 	c #A0ADCB",
"G 	c #A0ACCA",
"H 	c #9EABC9",
"I 	c #9EAAC8",
"J 	c #9CA9C7",
"K 	c #9CA8C6",
"L 	c #323640",
"M 	c #9CA9C6",
"N 	c #9BA8C6",
"O 	c #9BA7C5",
"P 	c #9AA6C4",
"Q 	c #99A5C3",
"R 	c #98A4C2",
"S 	c #97A4C1",
"T 	c #93A0BD",
"U 	c #31353E",
"V 	c #323740",
"W 	c #96A2C0",
"X 	c #95A1BF",
"Y 	c #95A1BE",
"Z 	c #94A0BD",
"` 	c #939FBD",
" .	c #929EBB",
"..	c #8F9BB8",
"+.	c #8F9BB7",
"@.	c #8E9AB6",
"#.	c #8D99B5",
"$.	c #2F333C",
"%.	c #31353F",
"&.	c #939FBB",
"*.	c #919DBA",
"=.	c #909CB9",
"-.	c #8E9AB7",
";.	c #8B97B3",
">.	c #8A96B3",
",.	c #8A95B2",
"'.	c #8995B1",
").	c #8793AF",
"!.	c #2D313B",
"~.	c #101215",
"{.	c #31343E",
"].	c #30343E",
"^.	c #30343D",
"/.	c #2E333B",
"(.	c #2E323B",
"_.	c #2E313B",
":.	c #2D313A",
"<.	c #0F1013",
"    . + + +                     ",
"  @ # $ $ $ %                   ",
"& * = = = = = -                 ",
"; > , , , , , ' ) ) ! ! ! ! ! ~ ",
"{ ] ^ ^ ^ / ( _ : < [ } | | 1 2 ",
"3 4 5 1 1 1 6 7 8 9 9 9 9 9 9 0 ",
"2 8 a a b c d e f 9 g g g g 9 h ",
"i j k l m n o p q r 9 g g g 9 s ",
"t u q v w x y z A 9 g g g g 9 B ",
"C D E F G H I J K 9 g g 9 g 9 L ",
"B M N O P Q R S 9 g g 9 T 9 9 U ",
"V S W X Y Z `  .9 g 9 ..+.@.#.$.",
"%.&. .*.=...-.#.#.9 ;.>.,.'.).!.",
"~.{.].^.^.$.$./.(._.!.!.!.!.:.<.",
"                                ",
"                                "};
