/* XPM */
static char * folder_up_xpm[] = {
"16 14 114 2",
"  	c None",
". 	c #353943",
"+ 	c #3C414C",
"@ 	c #5C6374",
"# 	c #9AA6C2",
"$ 	c #ABB9D8",
"% 	c #8C97B1",
"& 	c #272A32",
"* 	c #757E97",
"= 	c #808BA5",
"- 	c #FFFFFF",
"; 	c #5F6677",
"> 	c #1F2228",
", 	c #5F677A",
"' 	c #626A7A",
") 	c #010101",
"! 	c #7A8194",
"~ 	c #A4AFC8",
"{ 	c #A4AEC8",
"] 	c #393D45",
"^ 	c #282A31",
"/ 	c #868EA3",
"( 	c #98A2B9",
"_ 	c #B4C0E0",
": 	c #B3C0E0",
"< 	c #B3C0DF",
"[ 	c #B2BFDF",
"} 	c #B2BFDE",
"| 	c #B1BEDD",
"1 	c #3B404A",
"2 	c #3A3E47",
"3 	c #AFBBD8",
"4 	c #B0BDDC",
"5 	c #AEBCDB",
"6 	c #AEBBDB",
"7 	c #AEBADA",
"8 	c #ADBAD9",
"9 	c #ACB9D8",
"0 	c #393E48",
"a 	c #AAB7D6",
"b 	c #AAB6D6",
"c 	c #AAB6D5",
"d 	c #A9B6D4",
"e 	c #A8B5D4",
"f 	c #383C47",
"g 	c #393D48",
"h 	c #999999",
"i 	c #A5B1D0",
"j 	c #A4B1CF",
"k 	c #A3B0CF",
"l 	c #A3AFCE",
"m 	c #A2AFCD",
"n 	c #353944",
"o 	c #383C46",
"p 	c #A8B4D3",
"q 	c #A6B3D2",
"r 	c #A2AECC",
"s 	c #A1ADCB",
"t 	c #A0ACCA",
"u 	c #9FABC9",
"v 	c #9EAAC8",
"w 	c #9DAAC8",
"x 	c #9CA8C7",
"y 	c #343842",
"z 	c #363A44",
"A 	c #A2AECD",
"B 	c #A1ADCC",
"C 	c #9CA8C6",
"D 	c #9BA7C5",
"E 	c #9AA7C4",
"F 	c #9AA6C3",
"G 	c #99A5C3",
"H 	c #98A4C2",
"I 	c #97A3C1",
"J 	c #323640",
"K 	c #9CA9C6",
"L 	c #9BA8C6",
"M 	c #97A3C0",
"N 	c #96A2BF",
"O 	c #95A1BE",
"P 	c #94A0BD",
"Q 	c #93A0BD",
"R 	c #939FBC",
"S 	c #929EBB",
"T 	c #31353E",
"U 	c #323740",
"V 	c #97A4C1",
"W 	c #96A2C0",
"X 	c #919DBA",
"Y 	c #909CB9",
"Z 	c #8F9BB8",
"` 	c #8F9BB7",
" .	c #8E9AB6",
"..	c #8D99B5",
"+.	c #2F333C",
"@.	c #31353F",
"#.	c #939FBB",
"$.	c #8E9AB7",
"%.	c #8C98B4",
"&.	c #8B97B3",
"*.	c #8A96B3",
"=.	c #8A95B2",
"-.	c #8995B1",
";.	c #8793AF",
">.	c #2D313B",
",.	c #101215",
"'.	c #31343E",
").	c #30343E",
"!.	c #30343D",
"~.	c #2E333B",
"{.	c #2E323B",
"].	c #2E313B",
"^.	c #2D313A",
"/.	c #0F1013",
"    . + + +                     ",
"  @ # $ $ $ %                   ",
"& * = = = - = ;                 ",
"> , ' ' - ) - ! ~ ~ { { { { { ] ",
"^ / ( - ) ) ) - _ : < [ } } | 1 ",
"2 3 - ) ) ) ) ) - 4 5 6 7 8 9 0 ",
"1 - ) ) ) ) ) ) ) - a b c d e f ",
"g - - - h ) h - - - i j k l m n ",
"o p q - h ) h - r s t u v w x y ",
"z A B - h ) h - C D E F G H I J ",
"y K L - h ) h - M N O P Q R S T ",
"U V W - - - - - S X Y Z `  ...+.",
"@.#.S X Y Z $.....%.&.*.=.-.;.>.",
",.'.).!.!.+.+.~.{.].>.>.>.>.^./."};
