/* XPM */
static char * folder_lock_xpm[] = {
"16 16 186 2",
"  	c None",
". 	c #353943",
"+ 	c #3C414C",
"@ 	c #5C6374",
"# 	c #9AA6C2",
"$ 	c #ABB9D8",
"% 	c #8C97B1",
"& 	c #272A32",
"* 	c #757E97",
"= 	c #808BA5",
"- 	c #59606F",
"; 	c #101010",
"> 	c #0B0B0B",
", 	c #000000",
"' 	c #1F2228",
") 	c #5F677A",
"! 	c #626A7A",
"~ 	c #303237",
"{ 	c #0E0E0E",
"] 	c #616876",
"^ 	c #6D7485",
"/ 	c #616776",
"( 	c #3C3F46",
"_ 	c #A4AEC8",
": 	c #393D45",
"< 	c #282A31",
"[ 	c #868EA3",
"} 	c #98A2B9",
"| 	c #97A2B8",
"1 	c #97A1B8",
"2 	c #131416",
"3 	c #646B7D",
"4 	c #B3C0E0",
"5 	c #B3C0DF",
"6 	c #B2BFDF",
"7 	c #636B7C",
"8 	c #141517",
"9 	c #B1BEDD",
"0 	c #3B404A",
"a 	c #3A3E47",
"b 	c #AFBBD8",
"c 	c #B2BEDD",
"d 	c #B0BDDC",
"e 	c #0B0B0D",
"f 	c #62697B",
"g 	c #AEBCDB",
"h 	c #AEBBDB",
"i 	c #61687A",
"j 	c #0A0B0D",
"k 	c #ACB9D8",
"l 	c #393E48",
"m 	c #B0BDDD",
"n 	c #AFBCDC",
"o 	c #AFBCDB",
"p 	c #ACB7CF",
"q 	c #969679",
"r 	c #696644",
"s 	c #67653E",
"t 	c #6D6A3F",
"u 	c #6C693F",
"v 	c #6C6A42",
"w 	c #666446",
"x 	c #615F46",
"y 	c #797A68",
"z 	c #3F4248",
"A 	c #393D48",
"B 	c #ACB8D7",
"C 	c #ABB8D7",
"D 	c #AAB7D6",
"E 	c #AAB6D5",
"F 	c #989779",
"G 	c #C8C7B2",
"H 	c #B6B697",
"I 	c #ABAB86",
"J 	c #ACAB86",
"K 	c #A09E82",
"L 	c #CDCCB4",
"M 	c #E7E8DC",
"N 	c #F0F0E9",
"O 	c #C9C8B8",
"P 	c #565647",
"Q 	c #383C46",
"R 	c #A8B4D3",
"S 	c #A6B3D2",
"T 	c #A6B2D1",
"U 	c #A5B1D0",
"V 	c #ABA77A",
"W 	c #C2C2A8",
"X 	c #A0A077",
"Y 	c #AAAA84",
"Z 	c #534F36",
"` 	c #1A1513",
" .	c #5C5740",
"..	c #F3F2EC",
"+.	c #EDEDE5",
"@.	c #D6D6C1",
"#.	c #636354",
"$.	c #363A44",
"%.	c #A2AECD",
"&.	c #A1ADCC",
"*.	c #A0ADCB",
"=.	c #A0ACCA",
"-.	c #908D66",
";.	c #ADAD89",
">.	c #A7A781",
",.	c #BBBB9F",
"'.	c #545042",
").	c #181210",
"!.	c #5C584C",
"~.	c #EAEAE2",
"{.	c #D9D9C8",
"].	c #BFBFA1",
"^.	c #555540",
"/.	c #343842",
"(.	c #9CA9C6",
"_.	c #9BA8C6",
":.	c #9BA7C5",
"<.	c #9AA6C4",
"[.	c #8B8966",
"}.	c #BCBC9A",
"|.	c #BEBEA2",
"1.	c #D4D4C1",
"2.	c #C4C2B7",
"3.	c #484039",
"4.	c #CAC8BF",
"5.	c #D6D6C4",
"6.	c #C1C1A5",
"7.	c #A6A67E",
"8.	c #2F2F20",
"9.	c #323740",
"0.	c #97A4C1",
"a.	c #96A2C0",
"b.	c #95A1BF",
"c.	c #95A1BE",
"d.	c #828069",
"e.	c #CBCBB1",
"f.	c #D2D2BE",
"g.	c #EBEBE0",
"h.	c #B2AEA4",
"i.	c #2D261C",
"j.	c #A6A291",
"k.	c #C3C4A9",
"l.	c #AFAF8B",
"m.	c #939367",
"n.	c #282819",
"o.	c #31353F",
"p.	c #939FBB",
"q.	c #929EBB",
"r.	c #919DBA",
"s.	c #909CB9",
"t.	c #86877D",
"u.	c #DAD9CB",
"v.	c #ECECE3",
"w.	c #F7F7F3",
"x.	c #514E38",
"y.	c #181211",
"z.	c #4E4930",
"A.	c #A0A073",
"B.	c #757445",
"C.	c #262619",
"D.	c #101215",
"E.	c #31343E",
"F.	c #30343E",
"G.	c #30343D",
"H.	c #3F413F",
"I.	c #ABAA99",
"J.	c #F6F6F2",
"K.	c #EDEDE4",
"L.	c #9E9D8C",
"M.	c #83816D",
"N.	c #828065",
"O.	c #9F9F75",
"P.	c #8A895B",
"Q.	c #434120",
"R.	c #10100F",
"S.	c #A7A48F",
"T.	c #CBCBB8",
"U.	c #BBBB9E",
"V.	c #A4A47F",
"W.	c #8E8E62",
"X.	c #565635",
"Y.	c #46441F",
"Z.	c #727057",
"`.	c #696744",
" +	c #56542F",
".+	c #424121",
"    . + + +                     ",
"  @ # $ $ $ %                   ",
"& * = = = = = - ; > , > ;       ",
"' ) ! ! ! ! ! ~ { ] ^ / { ( _ : ",
"< [ } } } | 1 2 3 4 5 6 7 8 9 0 ",
"a b c 9 9 9 d e f d g h i j k l ",
"0 m n n o p q r s t u v w x y z ",
"A B C D E F G H I J K L M N O P ",
"Q R S T U V W X Y Z `  ...+.@.#.",
"$.%.&.*.=.-.;.>.,.'.).!.~.{.].^.",
"/.(._.:.<.[.}.|.1.2.3.4.5.6.7.8.",
"9.0.a.b.c.d.e.f.g.h.i.j.k.l.m.n.",
"o.p.q.r.s.t.u.v.w.x.y.z.I A.B.C.",
"D.E.F.G.G.H.I.J.K.L.M.N.O.P.Q.R.",
"              S.T.U.V.W.X.Y.    ",
"                Z.`. +.+        "};
